<svg width="1916" height="1078" viewBox="0 0 1916 1078" fill="none" xmlns="http://www.w3.org/2000/svg">
<g clip-path="url(#clip0_38_3809)">
<path d="M1916 0H0V1078H1916V0Z" fill="#121212"/>
<path d="M989.933 576.93C1085.83 576.93 1163.57 499.171 1163.57 403.252C1163.57 307.332 1085.83 229.574 989.933 229.574C894.036 229.574 816.296 307.332 816.296 403.252C816.296 499.171 894.036 576.93 989.933 576.93Z" fill="#17191B"/>
<path d="M490.975 794.526C509.714 794.526 524.904 779.332 524.904 760.589C524.904 741.846 509.714 726.652 490.975 726.652C472.236 726.652 457.046 741.846 457.046 760.589C457.046 779.332 472.236 794.526 490.975 794.526Z" fill="#17191B"/>
<path d="M1444.98 772.567C1505.61 772.567 1554.75 723.409 1554.75 662.77C1554.75 602.132 1505.61 552.974 1444.98 552.974C1384.36 552.974 1335.21 602.132 1335.21 662.77C1335.21 723.409 1384.36 772.567 1444.98 772.567Z" fill="#17191B"/>
<path d="M1472.92 261.515C1492.77 261.515 1508.85 245.427 1508.85 225.582C1508.85 205.736 1492.77 189.648 1472.92 189.648C1453.08 189.648 1437 205.736 1437 225.582C1437 245.427 1453.08 261.515 1472.92 261.515Z" fill="#17191B"/>
<path d="M271.433 399.259C365.126 399.259 441.079 323.289 441.079 229.574C441.079 135.86 365.126 59.8889 271.433 59.8889C177.741 59.8889 101.788 135.86 101.788 229.574C101.788 323.289 177.741 399.259 271.433 399.259Z" fill="#17191B"/>
<path d="M898.125 822.474C928.989 822.474 954.008 797.448 954.008 766.578C954.008 735.707 928.989 710.682 898.125 710.682C867.262 710.682 842.242 735.707 842.242 766.578C842.242 797.448 867.262 822.474 898.125 822.474Z" fill="#17191B"/>
<path d="M183.617 618.852C205.662 618.852 223.533 600.976 223.533 578.926C223.533 556.875 205.662 539 183.617 539C161.571 539 143.7 556.875 143.7 578.926C143.7 600.976 161.571 618.852 183.617 618.852Z" fill="#17191B"/>
<path d="M620.704 275.489C652.67 275.489 678.583 249.57 678.583 217.596C678.583 185.623 652.67 159.704 620.704 159.704C588.738 159.704 562.825 185.623 562.825 217.596C562.825 249.57 588.738 275.489 620.704 275.489Z" fill="#17191B"/>
<path d="M1716.42 1018.11C1790.27 1018.11 1850.14 958.228 1850.14 884.359C1850.14 810.49 1790.27 750.607 1716.42 750.607C1642.56 750.607 1582.7 810.49 1582.7 884.359C1582.7 958.228 1642.56 1018.11 1716.42 1018.11Z" fill="#17191B"/>
</g>
<defs>
<clipPath id="clip0_38_3809">
<rect width="1916" height="1078" fill="white"/>
</clipPath>
</defs>
</svg>
