<svg width="4258" height="896" viewBox="0 0 4258 896" fill="none" xmlns="http://www.w3.org/2000/svg">
<circle cx="448" cy="448" r="448" fill="#D9D9D9"/>
<path d="M432.97 200.108L440.061 240.716L183.466 285.524L227.437 542.264L186.805 549.223L135.897 251.983L432.97 200.108Z" fill="black"/>
<path d="M714.733 359.014L674.293 367.015L724.851 622.54L469.493 673.93L477.626 714.343L773.266 654.847L714.733 359.014Z" fill="black"/>
<g clip-path="url(#clip0_206_380)">
<path d="M498.686 269.755L602.467 343.694M268.936 588.047L275.088 697.747L380.779 667.735L636.674 308.372L630.583 272.093L561.3 222.731L525.021 228.822L268.936 588.047Z" stroke="black" stroke-width="40" stroke-linecap="round" stroke-linejoin="round"/>
<path d="M498.43 383.061L374.967 556.348" stroke="black" stroke-width="40" stroke-miterlimit="5" stroke-linecap="round" stroke-linejoin="round"/>
</g>
<path d="M1340.5 493.589H1403.28C1402.02 514.165 1396.35 532.432 1386.27 548.389C1376.34 564.346 1362.41 576.803 1344.49 585.762C1326.71 594.72 1305.3 599.199 1280.24 599.199C1260.65 599.199 1243.08 595.84 1227.54 589.121C1212.01 582.262 1198.71 572.464 1187.65 559.727C1176.73 546.989 1168.4 531.592 1162.67 513.535C1156.93 495.479 1154.06 475.252 1154.06 452.856V431.65C1154.06 409.255 1157 389.028 1162.88 370.972C1168.89 352.775 1177.43 337.308 1188.49 324.57C1199.69 311.833 1213.06 302.035 1228.59 295.176C1244.13 288.317 1261.49 284.888 1280.66 284.888C1306.14 284.888 1327.62 289.507 1345.12 298.745C1362.76 307.983 1376.41 320.721 1386.06 336.958C1395.86 353.195 1401.74 371.672 1403.7 392.388H1340.71C1340.01 380.07 1337.56 369.642 1333.36 361.104C1329.16 352.425 1322.8 345.916 1314.26 341.577C1305.86 337.098 1294.66 334.858 1280.66 334.858C1270.17 334.858 1261 336.818 1253.16 340.737C1245.32 344.657 1238.74 350.605 1233.42 358.584C1228.1 366.562 1224.11 376.641 1221.45 388.818C1218.93 400.856 1217.67 414.993 1217.67 431.23V452.856C1217.67 468.674 1218.86 482.601 1221.24 494.639C1223.62 506.536 1227.26 516.615 1232.16 524.873C1237.2 532.992 1243.64 539.15 1251.48 543.35C1259.46 547.409 1269.05 549.438 1280.24 549.438C1293.4 549.438 1304.25 547.339 1312.79 543.14C1321.33 538.94 1327.83 532.712 1332.31 524.453C1336.93 516.195 1339.66 505.907 1340.5 493.589ZM1695.76 435.01V449.497C1695.76 472.733 1692.61 493.589 1686.31 512.065C1680.01 530.542 1671.12 546.289 1659.64 559.307C1648.16 572.184 1634.45 582.052 1618.49 588.911C1602.67 595.77 1585.11 599.199 1565.79 599.199C1546.61 599.199 1529.05 595.77 1513.09 588.911C1497.27 582.052 1483.56 572.184 1471.94 559.307C1460.32 546.289 1451.29 530.542 1444.85 512.065C1438.55 493.589 1435.4 472.733 1435.4 449.497V435.01C1435.4 411.634 1438.55 390.778 1444.85 372.441C1451.15 353.965 1460.04 338.218 1471.52 325.2C1483.14 312.183 1496.85 302.244 1512.67 295.386C1528.63 288.527 1546.19 285.098 1565.37 285.098C1584.69 285.098 1602.25 288.527 1618.07 295.386C1634.03 302.244 1647.74 312.183 1659.22 325.2C1670.84 338.218 1679.8 353.965 1686.1 372.441C1692.54 390.778 1695.76 411.634 1695.76 435.01ZM1632.14 449.497V434.59C1632.14 418.353 1630.67 404.076 1627.73 391.758C1624.79 379.44 1620.45 369.082 1614.71 360.684C1608.97 352.285 1601.97 345.986 1593.71 341.787C1585.46 337.448 1576.01 335.278 1565.37 335.278C1554.73 335.278 1545.28 337.448 1537.03 341.787C1528.91 345.986 1521.98 352.285 1516.24 360.684C1510.64 369.082 1506.37 379.44 1503.43 391.758C1500.49 404.076 1499.02 418.353 1499.02 434.59V449.497C1499.02 465.594 1500.49 479.871 1503.43 492.329C1506.37 504.647 1510.71 515.075 1516.45 523.613C1522.19 532.012 1529.19 538.381 1537.45 542.72C1545.7 547.059 1555.15 549.229 1565.79 549.229C1576.43 549.229 1585.88 547.059 1594.13 542.72C1602.39 538.381 1609.32 532.012 1614.92 523.613C1620.52 515.075 1624.79 504.647 1627.73 492.329C1630.67 479.871 1632.14 465.594 1632.14 449.497ZM1834.96 595H1768.4L1768.82 545.869H1834.96C1851.48 545.869 1865.4 542.16 1876.74 534.741C1888.08 527.183 1896.62 516.195 1902.36 501.777C1908.24 487.36 1911.18 469.933 1911.18 449.497V434.59C1911.18 418.913 1909.5 405.125 1906.14 393.228C1902.92 381.33 1898.09 371.322 1891.65 363.203C1885.21 355.085 1877.3 348.996 1867.92 344.937C1858.55 340.737 1847.77 338.638 1835.59 338.638H1767.14V289.297H1835.59C1856.03 289.297 1874.71 292.796 1891.65 299.795C1908.73 306.654 1923.49 316.522 1935.95 329.399C1948.41 342.277 1958 357.674 1964.72 375.591C1971.57 393.368 1975 413.174 1975 435.01V449.497C1975 471.193 1971.57 490.999 1964.72 508.916C1958 526.833 1948.41 542.23 1935.95 555.107C1923.63 567.845 1908.87 577.713 1891.65 584.712C1874.57 591.571 1855.68 595 1834.96 595ZM1804.1 289.297V595H1741.11V289.297H1804.1ZM2225.91 545.869V595H2063.19V545.869H2225.91ZM2083.76 289.297V595H2020.78V289.297H2083.76ZM2204.7 413.804V461.675H2063.19V413.804H2204.7ZM2225.7 289.297V338.638H2063.19V289.297H2225.7ZM2369.73 289.297H2483.74C2507.11 289.297 2527.2 292.796 2544 299.795C2560.93 306.794 2573.95 317.152 2583.05 330.869C2592.15 344.587 2596.7 361.453 2596.7 381.47C2596.7 397.847 2593.9 411.914 2588.3 423.672C2582.84 435.29 2575.07 445.018 2564.99 452.856C2555.06 460.555 2543.37 466.714 2529.93 471.333L2509.98 481.831H2410.88L2410.46 432.7H2484.16C2495.22 432.7 2504.39 430.741 2511.66 426.821C2518.94 422.902 2524.4 417.443 2528.04 410.444C2531.82 403.446 2533.71 395.327 2533.71 386.089C2533.71 376.291 2531.89 367.822 2528.25 360.684C2524.61 353.545 2519.08 348.086 2511.66 344.307C2504.25 340.527 2494.94 338.638 2483.74 338.638H2432.72V595H2369.73V289.297ZM2540.64 595L2470.93 458.735L2537.49 458.315L2608.04 592.061V595H2540.64ZM2850.33 545.869V595H2687.61V545.869H2850.33ZM2708.19 289.297V595H2645.2V289.297H2708.19ZM2829.12 413.804V461.675H2687.61V413.804H2829.12ZM2850.12 289.297V338.638H2687.61V289.297H2850.12ZM2997.3 531.172L3069.32 289.297H3139.45L3033 595H2986.81L2997.3 531.172ZM2930.96 289.297L3002.76 531.172L3013.68 595H2967.07L2861.25 289.297H2930.96ZM3234.98 289.297V595H3172.2V289.297H3234.98ZM3499.11 545.869V595H3336.39V545.869H3499.11ZM3356.97 289.297V595H3293.98V289.297H3356.97ZM3477.9 413.804V461.675H3336.39V413.804H3477.9ZM3498.9 289.297V338.638H3336.39V289.297H3498.9ZM3609.55 546.499L3670.44 289.297H3704.45L3712.22 332.129L3647.34 595H3610.81L3609.55 546.499ZM3578.27 289.297L3628.66 546.499L3624.46 595H3583.72L3515.91 289.297H3578.27ZM3765.76 545.449L3815.52 289.297H3877.88L3810.27 595H3769.54L3765.76 545.449ZM3723.56 289.297L3784.87 547.549L3783.19 595H3746.65L3681.36 331.919L3689.75 289.297H3723.56Z" fill="white"/>
<defs>
<clipPath id="clip0_206_380">
<rect width="546.25" height="546.25" fill="white" transform="translate(133.276 231.128) rotate(-9.53094)"/>
</clipPath>
</defs>
</svg>
