<svg width="4352" height="896" viewBox="0 0 4352 896" fill="none" xmlns="http://www.w3.org/2000/svg">
<circle cx="448" cy="448" r="448" fill="#D9D9D9"/>
<path d="M432.97 200.108L440.061 240.716L183.466 285.524L227.437 542.264L186.805 549.223L135.897 251.983L432.97 200.108Z" fill="black"/>
<path d="M714.733 359.014L674.293 367.015L724.851 622.54L469.493 673.93L477.626 714.343L773.266 654.847L714.733 359.014Z" fill="black"/>
<g clip-path="url(#clip0_206_380)">
<path d="M498.686 269.755L602.467 343.694M268.936 588.047L275.088 697.747L380.779 667.735L636.674 308.372L630.583 272.093L561.3 222.731L525.021 228.822L268.936 588.047Z" stroke="black" stroke-width="40" stroke-linecap="round" stroke-linejoin="round"/>
<path d="M498.43 383.061L374.967 556.348" stroke="black" stroke-width="40" stroke-miterlimit="5" stroke-linecap="round" stroke-linejoin="round"/>
</g>
<path d="M1384.35 544.176C1406.11 544.176 1427.99 539.972 1450.01 531.563L1458.82 559.19C1448.68 564.262 1436.47 567.799 1422.19 569.801C1407.91 571.936 1395.29 573.004 1384.35 573.004H1381.55C1334.03 573.004 1302.2 559.391 1286.05 532.164C1276.18 515.615 1270.17 493.326 1268.04 465.299C1267.1 451.819 1266.64 437.071 1266.64 421.056C1266.64 405.04 1267.04 389.825 1267.84 375.411C1268.77 360.864 1270.57 347.584 1273.24 335.572C1275.91 323.427 1279.78 312.617 1284.85 303.141C1289.93 293.665 1296.73 285.657 1305.27 279.117C1322.62 265.504 1347.85 258.697 1380.95 258.697C1402.3 258.697 1419.45 260.099 1432.4 262.901C1445.48 265.571 1454.29 267.773 1458.82 269.508L1449.81 301.139C1423.79 292.063 1401.5 287.525 1382.95 287.525C1364.53 287.525 1350.32 289.794 1340.31 294.332C1330.43 298.736 1322.69 306.077 1317.08 316.354C1307.34 333.971 1302.47 367.537 1302.47 417.052V431.866C1302.47 472.573 1307.74 501 1318.29 517.149C1330.03 535.167 1351.45 544.176 1382.55 544.176H1384.35ZM1616.98 573.004C1569.46 573.004 1538.1 558.056 1522.89 528.16C1513.94 510.81 1508.67 487.654 1507.07 458.692C1506.4 445.079 1506.07 430.265 1506.07 414.249C1506.07 398.233 1506.54 383.085 1507.47 368.805C1508.4 354.391 1510.21 341.378 1512.88 329.767C1515.68 318.155 1519.55 307.945 1524.49 299.137C1529.56 290.195 1536.17 282.721 1544.31 276.715C1561.12 264.703 1585.35 258.697 1616.98 258.697H1629.39C1678.9 258.697 1710.6 272.044 1724.48 298.736C1733.16 315.419 1738.03 338.642 1739.1 368.404C1739.63 382.952 1739.9 398.367 1739.9 414.649C1739.9 430.799 1739.5 445.746 1738.7 459.493C1737.9 473.106 1736.23 485.719 1733.69 497.33C1731.16 508.941 1727.42 519.418 1722.48 528.761C1717.68 538.103 1711.14 546.044 1702.86 552.584C1685.78 566.197 1661.29 573.004 1629.39 573.004H1616.98ZM1628.99 544.176C1643.67 544.176 1655.82 542.574 1665.42 539.371C1675.17 536.168 1682.84 530.562 1688.45 522.555C1698.86 507.74 1704.06 479.312 1704.06 437.271V415.65C1704.06 395.497 1703.53 377.547 1702.46 361.798C1701.39 346.049 1698.52 332.77 1693.85 321.959C1684.24 299.537 1663.42 288.326 1631.39 288.326H1614.58C1582.01 288.326 1561.19 298.803 1552.11 319.757C1546.38 333.103 1543.24 348.852 1542.71 367.003C1542.17 385.154 1541.9 401.37 1541.9 415.65V437.271C1541.9 476.643 1547.78 504.404 1559.52 520.553C1570.87 536.301 1590.02 544.176 1616.98 544.176H1628.99ZM1823.38 264.503C1823.38 264.503 1833.39 263.769 1853.41 262.301C1883.44 259.898 1907.39 258.697 1925.28 258.697C1943.16 258.697 1957.44 259.431 1968.12 260.899C1978.8 262.234 1988.14 264.636 1996.15 268.106C2004.29 271.443 2011.16 276.048 2016.77 281.92C2022.51 287.792 2027.18 295.266 2030.78 304.342C2037.59 321.292 2040.99 346.516 2040.99 380.016V411.046C2040.99 450.685 2038.06 480.781 2032.18 501.334C2025.38 525.09 2013.16 542.174 1995.55 552.584C1977.4 563.528 1950.77 569 1915.67 569H1823.38V264.503ZM1993.34 311.349C1988.54 303.741 1981.6 298.002 1972.52 294.132C1963.45 290.261 1949.5 288.326 1930.68 288.326C1911.87 288.326 1887.44 289.461 1857.41 291.729V540.372H1921.07C1945.9 540.372 1964.32 536.301 1976.33 528.16C1988.07 520.286 1995.95 506.739 1999.95 487.521C2003.42 471.772 2005.16 446.28 2005.16 411.046V379.815C2005.16 346.583 2001.22 323.761 1993.34 311.349ZM2130.48 262.701H2304.05V292.33H2164.51V398.033H2277.02V427.462H2164.51V539.571H2309.45V569H2130.48V262.701ZM2472.41 263.702C2515.79 260.366 2552.22 258.697 2581.72 258.697H2585.72C2617.89 258.697 2640.44 265.904 2653.39 280.318C2664.2 292.73 2669.6 313.017 2669.6 341.178C2669.6 377.213 2664.47 404.039 2654.19 421.656C2643.65 439.54 2626.16 450.751 2601.74 455.289C2606.28 460.895 2610.75 466.767 2615.15 472.906L2626.96 489.923L2679.61 569H2639.58L2593.53 496.529C2580.72 477.044 2571.24 464.164 2565.1 457.892H2562.9C2553.42 457.758 2544.28 457.558 2535.47 457.291L2506.45 456.09V569H2472.41V263.702ZM2506.45 429.063C2520.46 429.731 2542.48 430.064 2572.51 430.064C2597.2 430.064 2614.02 423.124 2622.96 409.244C2630.57 397.099 2634.37 375.878 2634.37 345.582C2634.37 320.09 2628.7 303.408 2617.35 295.533C2610.68 290.862 2603.34 288.259 2595.33 287.726C2587.46 287.192 2580.52 286.925 2574.51 286.925C2568.64 286.925 2562.9 286.992 2557.29 287.125C2551.82 287.125 2546.35 287.192 2540.88 287.325C2535.41 287.459 2529.87 287.659 2524.26 287.926L2506.45 289.127V429.063ZM2745.88 262.701H2919.45V292.33H2779.91V398.033H2892.42V427.462H2779.91V539.571H2924.85V569H2745.88V262.701ZM2951.28 262.701H2988.12L3065.39 495.929L3075.8 536.969L3087.21 495.929L3162.69 262.701H3199.12L3096.02 569.2H3056.58L2951.28 262.701ZM3262.98 262.701H3296.82V569H3262.98V262.701ZM3395.71 262.701H3569.28V292.33H3429.75V398.033H3542.26V427.462H3429.75V539.571H3574.69V569H3395.71V262.701ZM3594.71 262.701H3631.54L3690.8 494.127L3701.21 542.975L3712.82 494.127L3774.48 262.701H3814.32L3887.79 544.576L3898.4 493.326L3954.86 262.701H3990.89L3912.42 569H3861.57L3802.91 349.986L3793.9 298.336L3784.49 349.986L3724.03 569H3677.19L3594.71 262.701Z" fill="white"/>
<defs>
<clipPath id="clip0_206_380">
<rect width="546.25" height="546.25" fill="white" transform="translate(133.276 231.128) rotate(-9.53094)"/>
</clipPath>
</defs>
</svg>
