<svg width="481" height="528" viewBox="0 0 481 528" fill="none" xmlns="http://www.w3.org/2000/svg">
<g clip-path="url(#clip0_186_1143)">
<path d="M334.002 107.12C300.659 101.8 262.689 98.9607 223.145 98.9607C186.955 98.9607 152.089 101.335 120.885 105.811C120.892 105.332 120.899 104.853 120.92 104.374C121.747 76.5646 133.422 50.182 153.448 30.865C173.474 11.5479 200.263 0.828853 228.09 0.998817C255.916 1.16878 282.572 12.2143 302.361 31.7745C322.15 51.3348 333.501 77.858 333.988 105.675C333.995 106.161 334.002 106.641 334.002 107.12Z" fill="#57B6FF"/>
<g opacity="0.1">
<path d="M241.419 0.959137C226.619 -1.03951 211.564 0.0932631 197.23 4.28404C182.896 8.47483 169.603 15.6301 158.212 25.2861C146.821 34.9421 137.586 46.8834 131.106 60.336C124.627 73.7887 121.047 88.4525 120.598 103.377C120.576 103.856 120.569 104.335 120.562 104.814C129.833 103.484 139.433 102.345 149.289 101.393C150.494 76.5296 160.368 52.8724 177.197 34.5269C194.025 16.1813 216.747 4.30515 241.419 0.959137Z" fill="white"/>
</g>
<path d="M380.62 115.572C365.271 111.412 349.703 108.108 333.988 105.675C308.23 101.685 282.263 99.1896 256.216 98.2028C245.366 97.7595 234.317 97.5306 223.145 97.5306C214.291 97.5306 205.508 97.6736 196.847 97.9597C171.44 98.7102 146.093 100.851 120.92 104.374C102.286 106.939 83.8326 110.679 65.6703 115.572C23.3228 127.277 0 142.966 0 159.741C0 176.517 23.3228 192.205 65.6703 203.911C95.4516 212.148 132.17 217.762 172.179 220.336C188.693 221.409 205.766 221.952 223.145 221.952C240.582 221.952 257.711 221.401 274.275 220.329C310.686 217.976 344.373 213.107 372.566 206.028C372.716 205.985 372.86 205.949 373.01 205.913C374.912 205.441 376.786 204.948 378.638 204.454C379.303 204.268 379.961 204.09 380.62 203.911C380.657 203.896 380.695 203.884 380.734 203.875C381.363 203.704 381.985 203.525 382.608 203.353C383.852 202.996 385.082 202.645 386.291 202.281C386.348 202.266 386.398 202.252 386.448 202.238C387.5 201.923 388.53 201.608 389.552 201.294C390.389 201.029 391.219 200.772 392.041 200.507C392.642 200.314 393.236 200.121 393.822 199.928C394.252 199.785 394.673 199.649 395.088 199.506C395.653 199.32 396.218 199.127 396.776 198.934C397.012 198.855 397.248 198.777 397.477 198.691C398.013 198.512 398.535 198.326 399.058 198.14C399.623 197.94 400.188 197.733 400.745 197.533C401.21 197.368 401.675 197.196 402.133 197.025C402.519 196.875 402.898 196.732 403.285 196.589C404.336 196.195 405.366 195.788 406.381 195.387C406.889 195.18 407.397 194.98 407.897 194.772C408.391 194.572 408.892 194.365 409.378 194.157C410.179 193.821 410.966 193.485 411.738 193.149C412.11 192.978 412.489 192.813 412.854 192.656C413.133 192.527 413.405 192.406 413.684 192.277C413.884 192.191 414.084 192.098 414.277 192.005C415 191.676 415.715 191.34 416.416 191.004C419.105 189.717 421.615 188.401 423.947 187.057C438.573 178.683 446.29 169.395 446.29 159.741C446.29 142.966 422.967 127.277 380.62 115.572ZM380.233 202.538C350.416 210.783 313.598 216.396 273.481 218.949C257.167 219.986 240.303 220.522 223.145 220.522C206.044 220.522 189.237 219.993 172.973 218.956C132.793 216.41 95.9165 210.797 66.0565 202.538C24.3813 191.011 1.43042 175.816 1.43042 159.741C1.43275 158.321 1.61056 156.906 1.95984 155.53C5.60712 141.028 28.0433 127.456 66.0565 116.945C84.0816 112.09 102.394 108.372 120.884 105.811C146.209 102.269 171.709 100.12 197.269 99.3755C205.794 99.0966 214.42 98.9584 223.145 98.9608C234.166 98.9608 245.066 99.1824 255.78 99.6115C281.978 100.589 308.097 103.096 334.002 107.12C349.582 109.541 365.016 112.821 380.233 116.945C418.24 127.456 440.668 141.021 444.323 155.515C444.678 156.896 444.858 158.316 444.859 159.741C444.859 175.816 421.909 191.011 380.233 202.538Z" fill="#3F3D56"/>
<path d="M445.882 160.392C445.882 169.945 438.008 178.984 423.947 187.057C421.608 188.401 419.091 189.717 416.416 191.004C415.715 191.34 415 191.676 414.277 192.005C414.084 192.098 413.884 192.191 413.684 192.277C413.405 192.406 413.133 192.527 412.854 192.656C412.489 192.813 412.11 192.978 411.738 193.149C410.966 193.485 410.179 193.821 409.378 194.157C408.892 194.365 408.391 194.572 407.897 194.772C407.397 194.98 406.889 195.18 406.381 195.387C405.366 195.788 404.336 196.195 403.285 196.589C402.898 196.732 402.519 196.875 402.133 197.025C401.675 197.196 401.211 197.368 400.745 197.533C400.188 197.733 399.623 197.94 399.058 198.14C398.535 198.326 398.013 198.512 397.477 198.691C397.248 198.777 397.012 198.855 396.776 198.934C396.218 199.127 395.653 199.32 395.088 199.506C394.673 199.649 394.252 199.785 393.822 199.928C393.236 200.121 392.642 200.314 392.041 200.507C391.219 200.772 390.389 201.029 389.552 201.294C388.53 201.608 387.5 201.923 386.449 202.238C386.398 202.252 386.348 202.266 386.291 202.281C385.082 202.645 383.852 202.996 382.608 203.353C381.985 203.525 381.363 203.704 380.734 203.875C380.695 203.884 380.657 203.896 380.62 203.911C379.961 204.09 379.303 204.268 378.639 204.454C376.793 204.941 374.912 205.434 373.01 205.913C372.86 205.949 372.716 205.985 372.566 206.027C345.138 212.878 311.488 217.869 274.247 220.279C257.933 221.33 240.925 221.888 223.453 221.888C205.823 221.888 188.672 221.323 172.229 220.25C74.0741 213.85 1.02295 189.481 1.02295 160.392C1.03068 158.622 1.30053 156.863 1.82372 155.172C1.86667 155.294 1.90962 155.408 1.95991 155.53C12.1656 182.33 84.5951 203.99 178.573 209.274C192.97 210.089 207.883 210.511 223.145 210.511C238.472 210.511 253.441 210.082 267.895 209.267C361.795 203.961 434.153 182.294 444.323 155.515C444.495 155.086 444.645 154.657 444.774 154.228C445.499 156.203 445.874 158.289 445.882 160.392Z" fill="#3F3D56"/>
<path d="M65.5626 152.695C53.6596 152.695 41.009 150.135 41.009 145.389C41.009 140.644 53.6596 138.084 65.5626 138.084C77.4656 138.084 90.1162 140.644 90.1162 145.389C90.1162 150.135 77.4656 152.695 65.5626 152.695ZM65.5626 139.514C51.9358 139.514 42.4394 142.611 42.4394 145.389C42.4394 148.168 51.9358 151.265 65.5626 151.265C79.1895 151.265 88.6858 148.168 88.6858 145.389C88.6858 142.611 79.1895 139.514 65.5626 139.514Z" fill="#3F3D56"/>
<path d="M116.342 186.303C104.439 186.303 91.7888 183.743 91.7888 178.997C91.7888 174.252 104.439 171.692 116.342 171.692C128.245 171.692 140.896 174.252 140.896 178.997C140.896 183.743 128.245 186.303 116.342 186.303ZM116.342 173.122C102.716 173.122 93.2192 176.219 93.2192 178.997C93.2192 181.776 102.716 184.873 116.342 184.873C129.969 184.873 139.466 181.776 139.466 178.997C139.466 176.219 129.969 173.122 116.342 173.122Z" fill="#3F3D56"/>
<path d="M380.254 152.695C368.351 152.695 355.701 150.135 355.701 145.389C355.701 140.644 368.351 138.084 380.254 138.084C392.157 138.084 404.808 140.644 404.808 145.389C404.808 150.135 392.157 152.695 380.254 152.695ZM380.254 139.514C366.627 139.514 357.131 142.611 357.131 145.389C357.131 148.168 366.627 151.265 380.254 151.265C393.881 151.265 403.377 148.168 403.377 145.389C403.377 142.611 393.881 139.514 380.254 139.514Z" fill="#3F3D56"/>
<path d="M329.474 186.303C317.571 186.303 304.921 183.743 304.921 178.997C304.921 174.252 317.572 171.692 329.474 171.692C341.377 171.692 354.028 174.252 354.028 178.997C354.028 183.743 341.377 186.303 329.474 186.303ZM329.474 173.122C315.848 173.122 306.351 176.219 306.351 178.997C306.351 181.776 315.848 184.873 329.474 184.873C343.101 184.873 352.598 181.776 352.598 178.997C352.598 176.219 343.101 173.122 329.474 173.122Z" fill="#3F3D56"/>
<path d="M222.908 202.035C211.005 202.035 198.355 199.474 198.355 194.729C198.355 189.984 211.005 187.423 222.908 187.423C234.811 187.423 247.462 189.984 247.462 194.729C247.462 199.474 234.811 202.035 222.908 202.035ZM222.908 188.853C209.281 188.853 199.785 191.95 199.785 194.729C199.785 197.508 209.281 200.604 222.908 200.604C236.535 200.604 246.031 197.508 246.031 194.729C246.031 191.95 236.535 188.853 222.908 188.853Z" fill="#3F3D56"/>
<path d="M241.009 352.325C257.604 352.325 271.057 338.875 271.057 322.283C271.057 305.692 257.604 292.241 241.009 292.241C224.414 292.241 210.962 305.692 210.962 322.283C210.962 338.875 224.414 352.325 241.009 352.325Z" fill="#2F2E41"/>
<path d="M229.583 342.02L214.959 349.342L219.047 357.503L233.671 350.181L229.583 342.02Z" fill="#2F2E41"/>
<path d="M220.975 356.675C221.842 355.36 219.702 352.419 216.194 350.107C212.687 347.795 209.141 346.987 208.273 348.302C207.406 349.617 209.546 352.557 213.054 354.869C216.561 357.181 220.108 357.99 220.975 356.675Z" fill="#2F2E41"/>
<path d="M252.435 342.021L248.348 350.181L262.972 357.503L267.059 349.343L252.435 342.021Z" fill="#2F2E41"/>
<path d="M268.965 354.869C272.472 352.557 274.612 349.617 273.745 348.302C272.878 346.987 269.332 347.795 265.824 350.107C262.317 352.419 260.176 355.36 261.044 356.675C261.911 357.99 265.457 357.181 268.965 354.869Z" fill="#2F2E41"/>
<path d="M238.906 325.202C244.577 325.202 249.175 320.605 249.175 314.935C249.175 309.264 244.577 304.667 238.906 304.667C233.234 304.667 228.636 309.264 228.636 314.935C228.636 320.605 233.234 325.202 238.906 325.202Z" fill="white"/>
<path d="M241.404 312.966C242.735 311.635 242.727 309.47 241.387 308.129C240.046 306.789 237.88 306.781 236.549 308.112C235.218 309.443 235.225 311.609 236.566 312.949C237.907 314.29 240.073 314.297 241.404 312.966Z" fill="#3F3D56"/>
<path d="M264.713 289.601C265.165 278.479 255.577 269.059 243.299 268.56C231.02 268.062 220.7 276.673 220.249 287.795C219.797 298.917 228.332 301.444 240.61 301.943C252.889 302.441 264.261 300.723 264.713 289.601Z" fill="#57B6FF"/>
<path d="M282.033 338.014C284.009 336.318 281.23 329.84 275.825 323.545C270.421 317.251 264.437 313.523 262.461 315.22C260.484 316.916 263.263 323.394 268.668 329.688C274.073 335.983 280.056 339.71 282.033 338.014Z" fill="#2F2E41"/>
<path d="M213.435 329.688C218.839 323.394 221.618 316.916 219.642 315.22C217.666 313.523 211.682 317.251 206.277 323.545C200.873 329.84 198.093 336.317 200.07 338.014C202.046 339.71 208.03 335.983 213.435 329.688Z" fill="#2F2E41"/>
<path d="M249.262 334.122C249.587 335.908 249.189 337.75 248.156 339.243C247.123 340.736 245.539 341.757 243.752 342.082C241.966 342.407 240.124 342.01 238.63 340.977C237.137 339.944 236.116 338.36 235.791 336.574L235.788 336.561C235.115 332.841 237.991 331.524 241.712 330.851C245.433 330.178 248.588 330.402 249.262 334.122Z" fill="white"/>
<path d="M190.245 354.239C189.866 354.239 189.502 354.088 189.234 353.82C188.966 353.552 188.815 353.188 188.815 352.809V268.431C188.815 268.052 188.966 267.688 189.234 267.42C189.502 267.152 189.866 267.001 190.245 267.001C190.625 267.001 190.989 267.152 191.257 267.42C191.525 267.688 191.676 268.052 191.676 268.431V352.809C191.676 353.188 191.525 353.552 191.257 353.82C190.989 354.088 190.625 354.239 190.245 354.239Z" fill="#CCCCCC"/>
<path d="M168.789 430.036C168.41 430.036 168.046 429.885 167.778 429.617C167.509 429.349 167.359 428.985 167.359 428.606V367.11C167.359 366.731 167.509 366.367 167.778 366.099C168.046 365.831 168.41 365.68 168.789 365.68C169.168 365.68 169.532 365.831 169.801 366.099C170.069 366.367 170.219 366.731 170.219 367.11V428.606C170.219 428.985 170.069 429.349 169.8 429.617C169.532 429.885 169.168 430.036 168.789 430.036Z" fill="#CCCCCC"/>
<path d="M223.86 379.266C223.481 379.266 223.117 379.116 222.849 378.848C222.58 378.579 222.43 378.216 222.43 377.836V293.459C222.43 293.079 222.58 292.716 222.849 292.447C223.117 292.179 223.481 292.028 223.86 292.028C224.239 292.028 224.603 292.179 224.872 292.447C225.14 292.716 225.291 293.079 225.291 293.459V377.836C225.291 378.216 225.14 378.579 224.872 378.848C224.603 379.116 224.239 379.266 223.86 379.266Z" fill="#CCCCCC"/>
<path d="M203.119 440.047C202.74 440.047 202.376 439.896 202.108 439.628C201.839 439.36 201.689 438.996 201.689 438.617V404.294C201.689 403.914 201.839 403.551 202.108 403.282C202.376 403.014 202.74 402.864 203.119 402.864C203.499 402.864 203.862 403.014 204.131 403.282C204.399 403.551 204.55 403.914 204.55 404.294V438.617C204.55 438.996 204.399 439.36 204.131 439.628C203.862 439.896 203.499 440.047 203.119 440.047Z" fill="#CCCCCC"/>
<path d="M232.443 264.141C232.063 264.141 231.699 263.99 231.431 263.722C231.163 263.454 231.012 263.09 231.012 262.711V228.388C231.012 228.008 231.163 227.645 231.431 227.376C231.699 227.108 232.063 226.958 232.443 226.958C232.822 226.958 233.186 227.108 233.454 227.376C233.722 227.645 233.873 228.008 233.873 228.388V262.711C233.873 263.09 233.722 263.454 233.454 263.722C233.186 263.99 232.822 264.141 232.443 264.141Z" fill="#CCCCCC"/>
<path d="M160.922 279.157C160.543 279.157 160.179 279.007 159.91 278.738C159.642 278.47 159.491 278.106 159.491 277.727V243.404C159.491 243.025 159.642 242.661 159.91 242.393C160.179 242.125 160.543 241.974 160.922 241.974C161.301 241.974 161.665 242.125 161.933 242.393C162.202 242.661 162.352 243.025 162.352 243.404V277.727C162.352 278.106 162.202 278.47 161.933 278.738C161.665 279.007 161.301 279.157 160.922 279.157Z" fill="#CCCCCC"/>
<path d="M285.368 282.733C284.989 282.733 284.625 282.582 284.357 282.314C284.088 282.046 283.938 281.682 283.938 281.302V246.979C283.938 246.6 284.088 246.236 284.357 245.968C284.625 245.7 284.989 245.549 285.368 245.549C285.748 245.549 286.111 245.7 286.38 245.968C286.648 246.236 286.799 246.6 286.799 246.979V281.302C286.799 281.682 286.648 282.046 286.38 282.314C286.111 282.582 285.748 282.733 285.368 282.733Z" fill="#CCCCCC"/>
<path d="M282.507 389.992C282.128 389.992 281.764 389.842 281.496 389.573C281.227 389.305 281.077 388.942 281.077 388.562V347.088C281.077 346.709 281.227 346.345 281.496 346.077C281.764 345.809 282.128 345.658 282.507 345.658C282.886 345.658 283.25 345.809 283.519 346.077C283.787 346.345 283.937 346.709 283.937 347.088V388.562C283.937 388.942 283.787 389.305 283.519 389.573C283.25 389.842 282.886 389.992 282.507 389.992Z" fill="#CCCCCC"/>
<path d="M253.899 426.461C253.52 426.461 253.156 426.31 252.887 426.042C252.619 425.774 252.469 425.41 252.469 425.031V363.535C252.469 363.156 252.619 362.792 252.887 362.524C253.156 362.256 253.52 362.105 253.899 362.105C254.278 362.105 254.642 362.256 254.91 362.524C255.179 362.792 255.329 363.156 255.329 363.535V425.031C255.329 425.41 255.179 425.774 254.91 426.042C254.642 426.31 254.278 426.461 253.899 426.461Z" fill="#CCCCCC"/>
<path d="M259.621 321.346C259.241 321.346 258.877 321.195 258.609 320.927C258.341 320.659 258.19 320.295 258.19 319.916V235.538C258.19 235.159 258.341 234.795 258.609 234.527C258.877 234.259 259.241 234.108 259.621 234.108C260 234.108 260.364 234.259 260.632 234.527C260.9 234.795 261.051 235.159 261.051 235.538V319.916C261.051 320.295 260.9 320.659 260.632 320.927C260.364 321.195 260 321.346 259.621 321.346Z" fill="#CCCCCC"/>
<path d="M434.985 500.897C437.032 499.183 434.265 492.508 428.805 485.988C423.345 479.467 417.258 475.571 415.211 477.285C413.164 478.998 415.93 485.674 421.391 492.194C426.851 498.714 432.937 502.611 434.985 500.897Z" fill="#2F2E41"/>
<path d="M421.558 493.482C426.937 477.347 418.215 459.906 402.077 454.528C385.938 449.149 368.494 457.87 363.115 474.005C357.735 490.14 366.457 507.581 382.596 512.959C398.734 518.337 416.178 509.617 421.558 493.482Z" fill="#2F2E41"/>
<path d="M405.373 507.912H396.016V524.675H405.373V507.912Z" fill="#2F2E41"/>
<path d="M386.658 507.912H377.301V524.675H386.658V507.912Z" fill="#2F2E41"/>
<path d="M397.576 527.793C401.882 527.793 405.374 526.484 405.374 524.87C405.374 523.255 401.882 521.946 397.576 521.946C393.269 521.946 389.778 523.255 389.778 524.87C389.778 526.484 393.269 527.793 397.576 527.793Z" fill="#2F2E41"/>
<path d="M378.86 527.404C383.167 527.404 386.658 526.095 386.658 524.48C386.658 522.865 383.167 521.556 378.86 521.556C374.554 521.556 371.062 522.865 371.062 524.48C371.062 526.095 374.554 527.404 378.86 527.404Z" fill="#2F2E41"/>
<path d="M382.665 445.032C385.415 433.958 397.556 427.441 409.782 430.476C422.007 433.511 429.689 444.949 426.938 456.023C424.188 467.098 415.063 467.133 402.837 464.098C390.611 461.063 379.914 456.106 382.665 445.032Z" fill="#CCCCCC"/>
<path d="M371.558 476.052C372.702 473.64 367.4 468.731 359.715 465.086C352.029 461.442 344.872 460.443 343.727 462.855C342.583 465.268 347.886 470.177 355.571 473.822C363.256 477.466 370.414 478.465 371.558 476.052Z" fill="#2F2E41"/>
<path d="M387.731 487.513C393.403 487.513 398.001 482.916 398.001 477.245C398.001 471.575 393.403 466.978 387.731 466.978C382.06 466.978 377.462 471.575 377.462 477.245C377.462 482.916 382.06 487.513 387.731 487.513Z" fill="white"/>
<path d="M383.511 476.988C385.401 476.988 386.934 475.455 386.934 473.565C386.934 471.675 385.401 470.143 383.511 470.143C381.62 470.143 380.087 471.675 380.087 473.565C380.087 475.455 381.62 476.988 383.511 476.988Z" fill="#3F3D56"/>
<path d="M387.643 502.973C390.013 502.973 391.934 501.052 391.934 498.682C391.934 496.313 390.013 494.392 387.643 494.392C385.273 494.392 383.352 496.313 383.352 498.682C383.352 501.052 385.273 502.973 387.643 502.973Z" fill="white"/>
<path d="M480.285 528H311.496C311.306 528 311.124 527.925 310.99 527.791C310.856 527.656 310.781 527.475 310.781 527.285C310.781 527.095 310.856 526.913 310.99 526.779C311.124 526.645 311.306 526.57 311.496 526.57H480.285C480.475 526.57 480.656 526.645 480.791 526.779C480.925 526.913 481 527.095 481 527.285C481 527.475 480.925 527.656 480.791 527.791C480.656 527.925 480.475 528 480.285 528Z" fill="#3F3D56"/>
</g>
<defs>
<clipPath id="clip0_186_1143">
<rect width="481" height="528" fill="white"/>
</clipPath>
</defs>
</svg>
