<svg width="635" height="462" viewBox="0 0 635 462" fill="none" xmlns="http://www.w3.org/2000/svg">
<g clip-path="url(#clip0_186_751)">
<path opacity="0.1" d="M624.241 369.137C608.513 401.595 576.56 423.3 543.458 437.613C516.955 448.997 488.939 456.474 460.288 459.809C454.801 460.46 449.296 460.966 443.773 461.325C429.66 462.245 415.502 462.229 401.392 461.277C392.904 460.713 384.446 459.811 376.018 458.571C346.732 454.298 318.18 445.984 291.179 433.865C283.386 430.355 275.751 426.523 268.274 422.37C255.785 415.447 243.819 407.621 232.472 398.954C229.961 397.035 227.482 395.075 225.034 393.074L224.027 392.251C222.103 390.663 220.196 389.041 218.26 387.466C215.041 384.769 211.625 382.319 208.039 380.134C207.796 379.992 207.553 379.85 207.305 379.714C206.641 379.329 205.966 378.967 205.279 378.624C203.864 377.911 202.414 377.27 200.933 376.705C194.093 374.1 186.768 373.152 179.343 373.312C178.111 373.312 176.879 373.395 175.642 373.478C173.913 373.596 172.178 373.774 170.448 373.999L169.809 374.088C164.299 374.867 158.851 376.037 153.507 377.588C145.252 379.956 137.145 382.917 128.985 385.588C125.521 386.731 122.051 387.821 118.551 388.798L117.781 389.011C112.804 390.411 107.737 391.472 102.616 392.185C90.9787 393.673 79.1589 392.721 67.9095 389.39L67.5187 389.278L66.7962 389.064L65.8073 388.757C64.1493 388.235 62.505 387.665 60.8746 387.045L59.8857 386.666C58.3066 386.058 56.761 385.405 55.249 384.706L54.2601 384.256C52.681 383.521 51.1355 382.746 49.6235 381.928C49.0787 381.644 48.5398 381.336 48.0069 381.046C46.3962 380.146 44.8171 379.202 43.2696 378.215C41.6273 377.169 40.0206 376.077 38.4494 374.94C37.723 374.419 37.0045 373.884 36.2939 373.336C32.1976 370.202 28.3617 366.742 24.8237 362.99C24.6283 362.794 24.4447 362.593 24.2612 362.398C23.3196 361.379 22.3958 360.343 21.5017 359.283C21.1701 358.892 20.8385 358.501 20.5128 358.098C19.4508 356.803 18.4264 355.479 17.4394 354.125C17.2914 353.929 17.1493 353.728 17.0072 353.532C12.9611 347.937 9.60684 341.872 7.01737 335.47C6.93447 335.275 6.85749 335.073 6.78643 334.878C5.99688 332.845 5.27641 330.778 4.62503 328.678C4.35856 327.801 4.10393 326.901 3.87891 326.025C3.80192 325.764 3.73086 325.498 3.66573 325.237C0.396987 312.368 0.0239258 298.991 0.0239258 285.69C0.0239258 284.138 0.0239258 282.589 0.0239258 281.041C0.118672 259.526 0.450282 237.645 3.62428 216.426C3.62428 216.278 3.66573 216.13 3.68941 215.988C4.75173 208.844 6.19672 201.763 8.01813 194.775C9.92441 187.442 12.3607 180.258 15.3077 173.278C22.609 156.104 33.2265 140.476 45.0165 125.991C59.2284 108.562 75.5129 92.4782 93.6508 79.2069C96.2563 77.3 98.8974 75.4484 101.574 73.6521L102.812 72.8408C103.244 72.5506 103.676 72.2486 104.108 71.9939C104.997 71.4017 105.885 70.845 106.785 70.2824L107.792 69.6547L109.71 68.4703L110.302 68.1328L111.327 67.5406L112.339 66.9483C113.524 66.2496 114.722 65.5666 115.934 64.8993C121.109 62.0133 126.407 59.3761 131.828 56.9875C133.426 56.2808 135.035 55.5998 136.654 54.9444C144.002 51.9514 151.551 49.4758 159.245 47.536C162.087 46.8174 164.947 46.1858 167.825 45.6409C171.22 44.9856 174.633 44.4427 178.064 44.0124C183.523 43.3255 189.013 42.9163 194.514 42.7865C233.194 41.8449 272.265 54.4351 302.578 78.5673C314.658 88.1847 325.512 99.5727 339.079 106.946C350.922 113.365 364.784 116.024 377.469 110.973C387.95 106.798 394.772 104.725 406.544 105.359C430.903 106.731 454.919 111.753 477.787 120.258C478.711 120.596 479.634 120.945 480.552 121.295C540.189 144.124 591.464 189.457 618.1 247.712C618.803 249.252 619.488 250.803 620.155 252.367C636.042 289.468 641.775 332.965 624.241 369.137Z" fill="#57B6FF"/>
<path opacity="0.1" d="M118.533 164.271V388.81L117.763 389.023C112.786 390.423 107.719 391.484 102.598 392.197C90.9606 393.685 79.1408 392.733 67.8914 389.402L67.5006 389.289L66.7782 389.076L65.7892 388.768C64.1312 388.247 62.487 387.677 60.8565 387.057L59.8676 386.678C58.2885 386.07 56.743 385.417 55.231 384.718L54.2421 384.268C52.663 383.533 51.1174 382.758 49.6054 381.94C49.0606 381.656 48.5218 381.348 47.9888 381.058C46.3781 380.158 44.799 379.214 43.2515 378.227C41.6093 377.181 40.0025 376.089 38.4313 374.952C37.7049 374.431 36.9864 373.896 36.2758 373.347C32.1795 370.214 28.3436 366.754 24.8056 363.002C24.6102 362.806 24.4267 362.605 24.2431 362.41C23.3015 361.391 22.3778 360.355 21.4836 359.295C21.152 358.904 20.8204 358.513 20.4947 358.11C19.4328 356.815 18.4083 355.491 17.4214 354.136C17.2733 353.941 17.1312 353.74 16.9891 353.544C12.9431 347.948 9.58877 341.884 6.9993 335.482C6.9164 335.287 6.83942 335.085 6.76836 334.89C5.97881 332.857 5.25835 330.79 4.60697 328.69C4.34049 327.813 4.08586 326.913 3.86084 326.036C3.78386 325.776 3.7128 325.509 3.64766 325.249C0.378921 312.38 0.00585938 299.002 0.00585938 285.702C0.00585938 284.15 0.00585938 282.6 0.00585938 281.053C0.100605 259.538 0.432215 237.656 3.60621 216.438C3.60621 216.29 3.64766 216.142 3.67135 216C4.73366 208.856 6.17865 201.775 8.00006 194.787H68.4717V164.271H80.5282V139.76H106.477V164.271H118.533Z" fill="#57B6FF"/>
<path opacity="0.1" d="M624.24 369.137C608.512 401.595 576.559 423.3 543.457 437.613C516.954 448.997 488.939 456.474 460.288 459.809C454.801 460.46 449.296 460.966 443.773 461.325C429.66 462.245 415.502 462.229 401.392 461.277C392.904 460.713 384.446 459.811 376.017 458.571C346.731 454.298 318.18 445.984 291.178 433.864C283.385 430.355 275.75 426.523 268.273 422.37C255.785 415.447 243.819 407.621 232.471 398.954C229.96 397.035 227.481 395.075 225.034 393.074L224.027 392.25C222.102 390.663 220.196 389.041 218.259 387.466C215.041 384.769 211.624 382.319 208.039 380.134C207.796 379.992 207.553 379.85 207.304 379.714C206.641 379.329 205.966 378.967 205.279 378.624C203.864 377.911 202.413 377.27 200.933 376.705V284.849H310.832V305.298H359.064V155.719H415.834V215.532H443.915V180.118H467.116V142.288H477.775V120.258C478.698 120.596 479.622 120.945 480.54 121.295V142.288H490.915V180.142H514.098V215.555H548.284V350.477H602.62V252.355H620.131C636.042 289.468 641.774 332.965 624.24 369.137Z" fill="#57B6FF"/>
<path opacity="0.1" d="M401.403 178.229H376.029V203.605H401.403V178.229Z" fill="#57B6FF"/>
<path opacity="0.1" d="M401.403 230.828H376.029V256.204H401.403V230.828Z" fill="#57B6FF"/>
<path opacity="0.1" d="M401.403 283.433H376.029V308.809H401.403V283.433Z" fill="#57B6FF"/>
<path opacity="0.1" d="M401.403 336.039H376.029V361.415H401.403V336.039Z" fill="#57B6FF"/>
<path opacity="0.1" d="M401.403 388.638H376.029V414.014H401.403V388.638Z" fill="#57B6FF"/>
<path opacity="0.1" d="M401.403 441.231V461.272C392.916 460.707 384.458 459.805 376.029 458.565V441.231H401.403Z" fill="#57B6FF"/>
<path opacity="0.1" d="M298.118 317.645H209.3V329.14H298.118V317.645Z" fill="#57B6FF"/>
<path opacity="0.1" d="M298.118 352.555H209.3V364.05H298.118V352.555Z" fill="#57B6FF"/>
<path opacity="0.1" d="M298.119 387.466V398.954H232.483C229.973 397.036 227.493 395.075 225.046 393.074L224.039 392.251C222.115 390.663 220.208 389.041 218.271 387.466H298.119Z" fill="#57B6FF"/>
<path opacity="0.1" d="M298.118 422.37V433.864H291.19C283.397 430.355 275.762 426.523 268.285 422.37H298.118Z" fill="#57B6FF"/>
<path opacity="0.1" d="M460.3 246.942H443.785V263.459H460.3V246.942Z" fill="#57B6FF"/>
<path opacity="0.1" d="M102.634 169.968H86.1182V186.484H102.634V169.968Z" fill="#57B6FF"/>
<path opacity="0.1" d="M102.634 208.342H86.1182V224.859H102.634V208.342Z" fill="#57B6FF"/>
<path opacity="0.1" d="M102.634 246.711H86.1182V263.228H102.634V246.711Z" fill="#57B6FF"/>
<path opacity="0.1" d="M102.634 285.086H86.1182V301.602H102.634V285.086Z" fill="#57B6FF"/>
<path opacity="0.1" d="M102.634 323.46H86.1182V339.977H102.634V323.46Z" fill="#57B6FF"/>
<path opacity="0.1" d="M102.634 361.829H86.1182V378.346H102.634V361.829Z" fill="#57B6FF"/>
<path opacity="0.1" d="M523.36 246.942H506.844V263.459H523.36V246.942Z" fill="#57B6FF"/>
<path opacity="0.1" d="M460.3 287.686H443.785V304.202H460.3V287.686Z" fill="#57B6FF"/>
<path opacity="0.1" d="M523.36 287.686H506.844V304.202H523.36V287.686Z" fill="#57B6FF"/>
<path opacity="0.1" d="M460.3 328.435H443.785V344.951H460.3V328.435Z" fill="#57B6FF"/>
<path opacity="0.1" d="M523.36 328.435H506.844V344.951H523.36V328.435Z" fill="#57B6FF"/>
<path opacity="0.1" d="M460.3 369.184H443.785V385.701H460.3V369.184Z" fill="#57B6FF"/>
<path opacity="0.1" d="M523.36 369.184H506.844V385.701H523.36V369.184Z" fill="#57B6FF"/>
<path opacity="0.1" d="M460.3 409.928H443.785V426.444H460.3V409.928Z" fill="#57B6FF"/>
<path opacity="0.1" d="M523.36 409.928H506.844V426.444H523.36V409.928Z" fill="#57B6FF"/>
<path opacity="0.1" d="M443.785 461.325V450.671H460.3V459.809L443.785 461.325Z" fill="#57B6FF"/>
<path opacity="0.1" d="M3.6123 216.005V225.481H66.7783V216.005H3.6123ZM9.23785 224.889H4.60122V216.598H9.23785V224.889ZM14.8634 224.889H10.2268V216.598H14.8634V224.889ZM20.4889 224.889H15.8523V216.598H20.4889V224.889ZM26.1145 224.889H21.4779V216.598H26.1145V224.889ZM31.74 224.889H27.1034V216.598H31.74V224.889ZM37.3656 224.889H32.729V216.598H37.3656V224.889ZM42.9911 224.889H38.3545V216.598H42.9911V224.889ZM48.6167 224.889H43.9801V216.598H48.6167V224.889ZM54.2422 224.889H49.6056V216.598H54.2422V224.889ZM59.8678 224.889H55.2312V216.598H59.8678V224.889ZM65.7894 224.889H60.8567V216.598H65.7894V224.889Z" fill="#57B6FF"/>
<path opacity="0.1" d="M3.6123 243.519V252.965H66.7783V243.519H3.6123ZM9.23785 252.373H4.60122V244.111H9.23785V252.373ZM14.8634 252.373H10.2268V244.111H14.8634V252.373ZM20.4889 252.373H15.8523V244.111H20.4889V252.373ZM26.1145 252.373H21.4779V244.111H26.1145V252.373ZM31.74 252.373H27.1034V244.111H31.74V252.373ZM37.3656 252.373H32.729V244.111H37.3656V252.373ZM42.9911 252.373H38.3545V244.111H42.9911V252.373ZM48.6167 252.373H43.9801V244.111H48.6167V252.373ZM54.2422 252.373H49.6056V244.111H54.2422V252.373ZM59.8678 252.373H55.2312V244.111H59.8678V252.373ZM65.7894 252.373H60.8567V244.111H65.7894V252.373Z" fill="#57B6FF"/>
<path opacity="0.1" d="M3.6123 271.027V280.472H66.7783V271.027H3.6123ZM9.23785 279.88H4.60122V271.619H9.23785V279.88ZM14.8634 279.88H10.2268V271.619H14.8634V279.88ZM20.4889 279.88H15.8523V271.619H20.4889V279.88ZM26.1145 279.88H21.4779V271.619H26.1145V279.88ZM31.74 279.88H27.1034V271.619H31.74V279.88ZM37.3656 279.88H32.729V271.619H37.3656V279.88ZM42.9911 279.88H38.3545V271.619H42.9911V279.88ZM48.6167 279.88H43.9801V271.619H48.6167V279.88ZM54.2422 279.88H49.6056V271.619H54.2422V279.88ZM59.8678 279.88H55.2312V271.619H59.8678V279.88ZM65.7894 279.88H60.8567V271.619H65.7894V279.88Z" fill="#57B6FF"/>
<path opacity="0.1" d="M3.6123 298.511V307.986H66.7783V298.511H3.6123ZM9.23785 307.394H4.60122V299.103H9.23785V307.394ZM14.8634 307.394H10.2268V299.103H14.8634V307.394ZM20.4889 307.394H15.8523V299.103H20.4889V307.394ZM26.1145 307.394H21.4779V299.103H26.1145V307.394ZM31.74 307.394H27.1034V299.103H31.74V307.394ZM37.3656 307.394H32.729V299.103H37.3656V307.394ZM42.9911 307.394H38.3545V299.103H42.9911V307.394ZM48.6167 307.394H43.9801V299.103H48.6167V307.394ZM54.2422 307.394H49.6056V299.103H54.2422V307.394ZM59.8678 307.394H55.2312V299.103H59.8678V307.394ZM65.7894 307.394H60.8567V299.103H65.7894V307.394Z" fill="#57B6FF"/>
<path opacity="0.1" d="M3.85498 326.042C4.08 326.931 4.33463 327.819 4.60111 328.695V326.635H9.23774V334.925H6.7625C6.83356 335.121 6.91054 335.322 6.99345 335.518H66.8019V326.042H3.85498ZM14.8633 334.925H10.2267V326.635H14.8633V334.925ZM20.4888 334.925H15.8522V326.635H20.4888V334.925ZM26.1144 334.925H21.4778V326.635H26.1144V334.925ZM31.7399 334.925H27.1033V326.635H31.7399V334.925ZM37.3655 334.925H32.7288V326.635H37.3655V334.925ZM42.991 334.925H38.3544V326.635H42.991V334.925ZM48.6166 334.925H43.9799V326.635H48.6166V334.925ZM54.2421 334.925H49.6055V326.635H54.2421V334.925ZM59.8677 334.925H55.231V326.635H59.8677V334.925ZM65.7893 334.925H60.8566V326.635H65.7893V334.925Z" fill="#57B6FF"/>
<path opacity="0.1" d="M16.9834 353.55C17.1255 353.746 17.2676 353.947 17.4157 354.142H20.489V358.116C20.8147 358.513 21.1463 358.904 21.4779 359.3V354.148H26.1146V362.439H24.2374C24.421 362.635 24.6045 362.836 24.7999 363.031H66.7784V353.556L16.9834 353.55ZM31.7401 362.433H27.1035V354.142H31.7401V362.433ZM37.3656 362.433H32.729V354.142H37.3656V362.433ZM42.9912 362.433H38.3546V354.142H42.9912V362.433ZM48.6167 362.433H43.9801V354.142H48.6167V362.433ZM54.2423 362.433H49.6057V354.142H54.2423V362.433ZM59.8678 362.433H55.2312V354.142H59.8678V362.433ZM65.7895 362.433H60.8568V354.142H65.7895V362.433Z" fill="#57B6FF"/>
<path opacity="0.1" d="M47.9888 381.058C48.5217 381.36 49.0606 381.65 49.6054 381.94V381.65H54.242V384.268L55.2309 384.718V381.65H59.8676V386.678L60.8565 387.057V381.65H65.7892V388.756L66.7781 389.064V381.058H47.9888Z" fill="#57B6FF"/>
<path opacity="0.1" d="M242.763 133.98C242.763 133.98 228.646 133.127 230.328 143.017C230.241 143.519 230.316 144.036 230.542 144.494C230.767 144.951 231.132 145.325 231.583 145.563C231.583 145.563 231.583 144.829 233.028 145.077C233.535 145.161 234.049 145.185 234.562 145.149C235.254 145.103 235.913 144.833 236.439 144.379C236.439 144.379 240.406 142.738 241.952 136.254C241.952 136.254 243.089 134.838 243.047 134.477L240.679 135.496C240.679 135.496 241.496 137.213 240.856 138.64C240.856 138.64 240.779 135.561 240.317 135.632C240.229 135.632 239.08 136.224 239.08 136.224C239.08 136.224 240.483 139.221 239.423 141.394C239.423 141.394 239.826 137.71 238.648 136.443L236.93 137.432C236.93 137.432 238.571 140.523 237.457 143.046C237.457 143.046 237.747 139.179 236.581 137.675L235.059 138.859C235.059 138.859 236.599 141.903 235.651 144C235.651 144 235.527 139.493 234.721 139.15C234.144 139.637 233.628 140.194 233.188 140.808C233.188 140.808 234.242 143.017 233.59 144.183C233.59 144.183 233.188 141.187 232.856 141.169C232.856 141.169 231.536 143.159 231.399 144.521C231.46 143.257 231.852 142.032 232.536 140.968C231.774 141.112 231.07 141.476 230.511 142.016C230.511 142.016 230.718 140.612 232.88 140.488C232.88 140.488 233.975 138.984 234.271 138.889C234.271 138.889 232.134 138.711 230.837 139.286C230.837 139.286 231.98 137.959 234.662 138.563L236.16 137.337C236.16 137.337 233.348 136.952 232.157 137.379C232.157 137.379 233.525 136.194 236.563 137.059L238.197 136.082C236.942 135.807 235.656 135.696 234.372 135.75C234.372 135.75 235.876 134.939 238.677 135.821L239.861 135.294C239.861 135.294 238.085 134.951 237.593 134.898C237.102 134.844 237.049 134.702 237.049 134.702C238.161 134.517 239.303 134.644 240.347 135.069C240.347 135.069 242.805 134.134 242.763 133.98Z" fill="#57B6FF"/>
<path opacity="0.1" d="M205.706 182.108C205.706 182.108 200.879 195.397 210.84 196.611C211.296 196.835 211.811 196.91 212.312 196.824C212.813 196.737 213.274 196.495 213.629 196.131C213.629 196.131 212.936 195.9 213.575 194.603C213.799 194.143 213.97 193.658 214.085 193.158C214.234 192.48 214.16 191.771 213.871 191.139C213.871 191.139 213.427 186.869 207.648 183.547C207.648 183.547 206.618 182.049 206.256 181.989L206.552 184.565C206.552 184.565 208.43 184.269 209.62 185.288C209.62 185.288 206.659 184.488 206.582 184.95C206.582 185.039 206.801 186.307 206.801 186.307C206.801 186.307 210.07 185.809 211.852 187.444C211.852 187.444 208.43 186.01 206.884 186.786L207.346 188.669C207.346 188.669 210.774 187.982 212.877 189.759C212.877 189.759 209.253 188.391 207.476 189.078L208.181 190.855C208.181 190.855 211.538 190.262 213.279 191.737C213.279 191.737 208.921 190.553 208.37 191.251C208.674 191.941 209.059 192.591 209.519 193.188C209.519 193.188 211.941 192.809 212.871 193.78C212.871 193.78 209.88 193.312 209.774 193.62C209.774 193.62 211.307 195.456 212.575 195.989C211.385 195.568 210.325 194.843 209.501 193.887C209.423 194.661 209.573 195.441 209.934 196.131C209.934 196.131 208.643 195.539 209.134 193.437C209.134 193.437 207.997 191.962 207.997 191.66C207.997 191.66 207.216 193.656 207.405 195.065C207.405 195.065 206.458 193.591 207.796 191.192L207.05 189.416C207.05 189.416 205.865 192.004 205.948 193.271C205.948 193.271 205.214 191.619 206.896 188.948L206.428 187.106C205.808 188.225 205.337 189.419 205.025 190.659C205.025 190.659 204.669 188.983 206.31 186.549L206.138 185.282C206.138 185.282 205.309 186.869 205.113 187.349C204.918 187.828 204.77 187.811 204.77 187.811C204.906 186.691 205.351 185.631 206.055 184.749C206.055 184.749 205.865 182.108 205.706 182.108Z" fill="#57B6FF"/>
<path opacity="0.1" d="M299.285 170.903C299.285 170.903 294.465 184.216 304.419 185.401C304.877 185.625 305.393 185.698 305.895 185.611C306.397 185.524 306.859 185.28 307.214 184.915C307.214 184.915 306.515 184.684 307.161 183.393C307.387 182.931 307.556 182.444 307.664 181.942C307.816 181.264 307.743 180.556 307.457 179.923C307.457 179.923 307.013 175.653 301.233 172.331C301.233 172.331 300.197 170.838 299.836 170.779L300.138 173.349C300.138 173.349 302.015 173.059 303.205 174.078C303.205 174.078 300.244 173.278 300.161 173.734C300.161 173.829 300.38 175.09 300.38 175.09C300.38 175.09 303.649 174.599 305.438 176.227C305.438 176.227 302.015 174.8 300.463 175.57L300.931 177.459C300.931 177.459 304.36 176.766 306.462 178.549C306.462 178.549 302.832 177.175 301.055 177.862L301.76 179.638C301.76 179.638 305.118 179.046 306.859 180.521C306.859 180.521 302.506 179.336 301.95 180.041C302.262 180.733 302.66 181.384 303.134 181.978C303.134 181.978 305.55 181.593 306.486 182.57C306.486 182.57 303.495 182.102 303.389 182.416C303.389 182.416 304.916 184.246 306.184 184.785C304.994 184.365 303.936 183.64 303.116 182.682C303.038 183.456 303.186 184.236 303.543 184.927C303.543 184.927 302.258 184.335 302.749 182.238C302.749 182.238 301.612 180.758 301.606 180.462C301.606 180.462 300.83 182.463 301.014 183.867C301.014 183.867 300.067 182.398 301.405 179.994L300.659 178.217C300.659 178.217 299.474 180.805 299.557 182.066C299.557 182.066 298.823 180.42 300.505 177.749L300.031 175.902C299.411 177.02 298.94 178.215 298.628 179.455C298.628 179.455 298.278 177.779 299.919 175.345L299.747 174.078C299.747 174.078 298.918 175.665 298.716 176.144C298.515 176.624 298.373 176.606 298.373 176.606C298.513 175.486 298.96 174.427 299.664 173.545C299.664 173.545 299.451 170.909 299.285 170.903Z" fill="#57B6FF"/>
<path opacity="0.1" d="M165.516 279.561C165.516 279.561 160.689 292.855 170.65 294.069C171.106 294.294 171.622 294.368 172.123 294.281C172.624 294.193 173.085 293.949 173.439 293.584C173.439 293.584 172.746 293.353 173.385 292.062C173.613 291.601 173.784 291.113 173.895 290.611C174.048 289.933 173.973 289.223 173.682 288.592C173.682 288.592 173.237 284.322 167.458 281.005C167.458 281.005 166.428 279.507 166.066 279.448L166.362 282.018C166.362 282.018 168.245 281.728 169.43 282.747C169.43 282.747 166.469 281.947 166.392 282.403C166.392 282.498 166.611 283.759 166.611 283.759C166.611 283.759 169.88 283.268 171.662 284.896C171.662 284.896 168.24 283.469 166.694 284.239L167.156 286.128C167.156 286.128 170.585 285.435 172.687 287.218C172.687 287.218 169.063 285.844 167.286 286.531L167.991 288.307C167.991 288.307 171.348 287.715 173.089 289.19C173.089 289.19 168.737 288.005 168.18 288.71C168.484 289.4 168.869 290.05 169.329 290.647C169.329 290.647 171.751 290.262 172.687 291.239C172.687 291.239 169.69 290.771 169.584 291.085C169.584 291.085 171.117 292.915 172.385 293.454C171.194 293.036 170.135 292.313 169.311 291.357C169.233 292.13 169.383 292.908 169.744 293.596C169.744 293.596 168.453 293.003 168.944 290.907C168.944 290.907 167.813 289.427 167.807 289.13C167.807 289.13 167.026 291.132 167.215 292.536C167.215 292.536 166.268 291.067 167.606 288.663L166.86 286.886C166.86 286.886 165.676 289.474 165.764 290.735C165.764 290.735 165.03 289.089 166.712 286.418L166.238 284.576C165.617 285.695 165.145 286.889 164.835 288.13C164.835 288.13 164.479 286.448 166.12 284.02L165.948 282.747C165.948 282.747 165.119 284.334 164.923 284.813C164.728 285.293 164.58 285.275 164.58 285.275C164.717 284.154 165.164 283.094 165.871 282.214C165.871 282.214 165.676 279.561 165.516 279.561Z" fill="#57B6FF"/>
<path opacity="0.1" d="M146.365 154.257C146.365 154.257 141.545 167.546 151.499 168.76C151.956 168.984 152.472 169.058 152.974 168.972C153.476 168.886 153.938 168.644 154.294 168.28C154.294 168.28 153.595 168.049 154.241 166.752C154.464 166.29 154.633 165.803 154.744 165.301C154.896 164.625 154.823 163.918 154.537 163.288C154.537 163.288 154.093 159.018 148.307 155.696C148.307 155.696 147.277 154.197 146.916 154.138L147.218 156.714C147.218 156.714 149.095 156.418 150.279 157.437C150.279 157.437 147.318 156.637 147.241 157.099C147.241 157.188 147.461 158.455 147.461 158.455C147.461 158.455 150.729 157.958 152.518 159.592C152.518 159.592 149.095 158.159 147.543 158.935L148.005 160.818C148.005 160.818 151.434 160.125 153.542 161.908C153.542 161.908 149.912 160.534 148.136 161.227L148.84 163.003C148.84 163.003 152.198 162.411 153.939 163.892C153.939 163.892 149.586 162.707 149.03 163.406C149.333 164.096 149.719 164.746 150.179 165.343C150.179 165.343 152.6 164.964 153.536 165.935C153.536 165.935 150.546 165.467 150.439 165.775C150.439 165.775 151.967 167.611 153.234 168.144C152.045 167.721 150.986 166.997 150.161 166.041C150.082 166.816 150.233 167.596 150.593 168.286C150.593 168.286 149.302 167.694 149.8 165.591C149.8 165.591 148.663 164.117 148.657 163.815C148.657 163.815 147.881 165.81 148.065 167.22C148.065 167.22 147.111 165.745 148.455 163.347L147.703 161.57C147.703 161.57 146.519 164.158 146.608 165.426C146.608 165.426 145.874 163.773 147.555 161.102L147.082 159.261C146.462 160.379 145.99 161.574 145.678 162.814C145.678 162.814 145.329 161.138 146.963 158.704L146.797 157.437C146.797 157.437 145.962 159.024 145.767 159.498C145.571 159.971 145.423 159.965 145.423 159.965C145.56 158.845 146.007 157.784 146.714 156.904C146.714 156.904 146.531 154.257 146.365 154.257Z" fill="#57B6FF"/>
<path opacity="0.1" d="M182.155 226.624C182.155 226.624 185.88 240.244 194.715 235.507C195.217 235.427 195.681 235.19 196.041 234.831C196.4 234.471 196.637 234.007 196.717 233.505C196.717 233.505 196.018 233.718 195.799 232.291C195.715 231.784 195.572 231.289 195.372 230.816C195.11 230.174 194.641 229.636 194.04 229.289C194.04 229.289 191.215 226.055 184.565 226.671C184.565 226.671 182.86 226.049 182.528 226.209L184.257 228.134C184.257 228.134 185.625 226.813 187.183 226.949C187.183 226.949 184.287 228.015 184.5 228.424C184.548 228.507 185.46 229.407 185.46 229.407C185.46 229.407 187.828 227.115 190.244 227.417C190.244 227.417 186.626 228.223 185.809 229.751L187.272 231.024C187.272 231.024 189.676 228.483 192.423 228.72C192.423 228.72 188.663 229.691 187.609 231.278L189.22 232.338C189.22 232.338 191.588 229.904 193.898 230.124C193.898 230.124 189.67 231.681 189.605 232.558C190.251 232.947 190.944 233.255 191.665 233.475C191.665 233.475 193.442 231.77 194.739 232.013C194.739 232.013 192.021 233.357 192.115 233.671C192.115 233.671 194.425 234.263 195.757 233.979C194.544 234.323 193.262 234.343 192.038 234.038C192.419 234.716 192.992 235.266 193.685 235.619C193.685 235.619 192.287 235.874 191.482 233.878C191.482 233.878 189.705 233.327 189.516 233.079C189.516 233.079 190.037 235.163 190.996 236.206C190.996 236.206 189.374 235.548 189.084 232.812L187.443 231.788C187.443 231.788 187.982 234.577 188.764 235.566C188.764 235.566 187.212 234.642 187.047 231.492L185.602 230.26C185.742 231.538 186.049 232.792 186.514 233.991C186.514 233.991 185.264 232.806 185.199 229.893L184.329 228.951C184.329 228.951 184.565 230.728 184.678 231.231C184.79 231.734 184.678 231.823 184.678 231.823C184.144 230.828 183.898 229.705 183.967 228.578C183.967 228.578 182.291 226.535 182.155 226.624Z" fill="#57B6FF"/>
<path opacity="0.1" d="M283.202 238.787C283.202 238.787 286.927 252.408 295.756 247.67C296.26 247.593 296.725 247.357 297.086 246.997C297.447 246.637 297.684 246.172 297.763 245.669C297.763 245.669 297.059 245.882 296.84 244.484C296.761 243.977 296.62 243.482 296.419 243.01C296.153 242.368 295.682 241.831 295.081 241.482C295.081 241.482 292.256 238.249 285.606 238.87C285.606 238.87 283.901 238.243 283.575 238.403L285.298 240.327C285.298 240.327 286.666 239.007 288.224 239.143C288.224 239.143 285.328 240.209 285.547 240.617C285.589 240.7 286.506 241.6 286.506 241.6C286.506 241.6 288.875 239.309 291.291 239.611C291.291 239.611 287.667 240.416 286.85 241.944L288.318 243.217C288.318 243.217 290.687 240.677 293.464 240.913C293.464 240.913 289.71 241.885 288.656 243.472L290.267 244.532C290.267 244.532 292.635 242.098 294.939 242.317C294.939 242.317 290.711 243.874 290.652 244.751C291.296 245.14 291.986 245.448 292.706 245.669C292.706 245.669 294.483 243.963 295.78 244.206C295.78 244.206 293.068 245.55 293.156 245.864C293.156 245.864 295.466 246.456 296.804 246.172C295.589 246.516 294.305 246.536 293.079 246.231C293.462 246.908 294.034 247.457 294.726 247.813C294.726 247.813 293.328 248.067 292.523 246.072C292.523 246.072 290.746 245.521 290.563 245.272C290.563 245.272 291.078 247.357 292.037 248.399C292.037 248.399 290.415 247.742 290.125 245.006L288.484 243.969C288.484 243.969 289.023 246.759 289.811 247.747C289.811 247.747 288.259 246.824 288.093 243.673L286.643 242.441C286.783 243.72 287.092 244.974 287.56 246.172C287.56 246.172 286.305 244.988 286.24 242.074L285.369 241.133C285.369 241.133 285.606 242.909 285.719 243.413C285.831 243.916 285.719 244.005 285.719 244.005C285.185 243.01 284.939 241.886 285.008 240.76C285.008 240.76 283.338 238.699 283.202 238.787Z" fill="#57B6FF"/>
<path d="M245.292 375.574C245.292 375.574 276.013 365.228 269.653 328.571L230.63 318.438L221.57 348.516L245.292 375.574Z" fill="#CED7E7"/>
<path opacity="0.1" d="M221.57 348.516L245.286 375.574C245.286 375.574 276.007 365.228 269.648 328.571L221.57 348.516Z" fill="black"/>
<path d="M92.4779 77.7028C92.4779 77.7028 96.623 84.448 102.29 81.0783C107.957 77.7087 102.521 68.3993 102.521 68.3993C102.521 68.3993 91.6666 66.9129 92.4779 77.7028Z" fill="#FED253"/>
<path opacity="0.1" d="M102.29 81.0783C101.622 81.5109 100.872 81.8023 100.087 81.9347C99.3018 82.067 98.4979 82.0376 97.7246 81.8482C95.6461 81.3211 94.0473 79.7222 93.1887 78.674C92.9325 78.3669 92.6952 78.0445 92.4781 77.7087C92.1879 73.8594 93.3841 71.5676 95.0421 70.2174C97.322 68.3638 100.478 68.2868 101.84 68.346C102.261 68.346 102.503 68.4052 102.503 68.4052L102.616 68.5947C102.776 68.8967 103.125 69.5659 103.498 70.4602C104.765 73.3916 106.275 78.7036 102.29 81.0783Z" fill="black"/>
<path d="M248.312 326.848L269.63 328.571L309.305 328.897L278.044 367.39C278.044 367.39 268.126 367.929 266.083 369.326C264.04 370.724 235.355 369.978 235.355 369.978L230.725 350.246L248.312 326.848Z" fill="#FFA2A2"/>
<path opacity="0.05" d="M248.312 326.848L269.63 328.571L309.305 328.897L278.044 367.39C278.044 367.39 268.126 367.929 266.083 369.326C264.04 370.724 235.355 369.978 235.355 369.978L230.725 350.246L248.312 326.848Z" fill="black"/>
<path d="M226.751 223.355L231.707 231.764L232.785 246.427C232.785 246.427 236.238 258.928 238.825 262.594C241.413 266.26 242.491 275.966 242.491 275.966C242.491 275.966 243.569 285.021 244.859 286.957C246.15 288.894 247.879 302.947 247.879 302.947C247.879 302.947 259.308 325.8 269.653 328.601C269.653 328.601 218.342 345.419 245.292 375.604C245.292 375.604 226.106 380.341 221.576 374.958C217.046 369.575 205.19 289.794 205.19 289.794L208.856 222.52L226.751 223.355Z" fill="#CED7E7"/>
<path opacity="0.05" d="M226.751 223.355L231.707 231.764L232.785 246.427C232.785 246.427 236.238 258.928 238.825 262.594C241.413 266.26 242.491 275.966 242.491 275.966C242.491 275.966 243.569 285.021 244.859 286.957C246.15 288.894 247.879 302.947 247.879 302.947C247.879 302.947 259.308 325.8 269.653 328.601C269.653 328.601 218.342 345.419 245.292 375.604C245.292 375.604 226.106 380.341 221.576 374.958C217.046 369.575 205.19 289.794 205.19 289.794L208.856 222.52L226.751 223.355Z" fill="black"/>
<path d="M164.497 141.4C163.057 148.87 163.484 156.579 165.741 163.844L157.758 186.697C157.758 186.697 96.9609 152.847 102.136 144.651C105.068 140.002 105.441 127.702 105.204 117.931C105.032 110.505 104.505 104.547 104.505 104.547C104.505 104.547 179.118 111.885 169.187 128.916C166.94 132.787 165.355 137.007 164.497 141.4Z" fill="#FFA2A2"/>
<path opacity="0.1" d="M169.187 128.916C166.94 132.787 165.354 137.007 164.497 141.4C153.424 144.942 141.466 144.54 130.657 140.262C119.847 135.983 110.853 128.092 105.204 117.931C105.032 110.505 104.505 104.547 104.505 104.547C104.505 104.547 179.1 111.885 169.187 128.916Z" fill="black"/>
<path d="M199.369 92.259C199.374 100.164 197.514 107.959 193.94 115.01C190.366 122.061 185.178 128.169 178.799 132.837C172.42 137.505 165.03 140.603 157.229 141.877C149.428 143.151 141.436 142.567 133.903 140.171C126.37 137.775 119.509 133.635 113.877 128.088C108.245 122.541 104.002 115.743 101.492 108.247C98.9815 100.751 98.2753 92.7686 99.4306 84.9483C100.586 77.1281 103.57 69.6908 108.141 63.2411C108.851 62.2423 109.599 61.2671 110.385 60.3157C114.861 54.8746 120.432 50.4358 126.735 47.2872C130.154 45.5763 133.761 44.2687 137.482 43.3905C144.202 41.7985 151.177 41.6063 157.974 42.8259C164.771 44.0455 171.245 46.6507 176.992 50.4796C182.739 54.3084 187.637 59.2789 191.38 65.082C195.124 70.885 197.634 77.3963 198.753 84.211C199.172 86.8731 199.378 89.5642 199.369 92.259Z" fill="#FFA2A2"/>
<path d="M219.201 298.825C218.449 302.84 219.39 310.177 220.817 317.645C220.877 317.971 220.942 318.296 221.007 318.622C221.072 318.948 221.167 319.451 221.25 319.86C221.907 323.069 222.624 326.25 223.322 329.14C224.021 332.029 224.649 334.505 225.182 336.542C225.987 339.592 226.538 341.511 226.538 341.511C226.538 341.511 226.609 343.394 226.704 346.39C226.757 348.12 226.816 350.228 226.875 352.555C226.875 353.23 226.917 353.917 226.935 354.628C226.964 355.866 226.994 357.151 227.023 358.465C227.023 358.892 227.023 359.318 227.053 359.75C227.053 361.166 227.106 362.611 227.13 364.05C227.16 366.028 227.183 368.006 227.195 369.924C227.195 370.659 227.195 371.381 227.195 372.092C227.195 373.928 227.195 375.687 227.195 377.303C227.13 381.893 226.946 385.357 226.556 386.358C226.419 386.702 226.295 387.075 226.177 387.465C225.663 389.304 225.291 391.179 225.063 393.074L224.057 392.25C222.132 390.663 220.225 389.041 218.289 387.465C215.07 384.769 211.654 382.318 208.068 380.134C207.825 379.992 207.583 379.85 207.334 379.714C206.671 379.329 205.996 378.967 205.309 378.624C203.894 377.91 202.443 377.27 200.962 376.705C194.123 374.099 186.798 373.152 179.372 373.312C176.411 374.443 174.487 375.254 174.487 375.254L170.72 376.391L170.093 376.581C166.013 377.824 160.275 379.589 158.208 380.324C154.868 381.508 125.87 387.542 125.87 387.542C123.221 388.266 120.515 388.761 117.781 389.023C112.804 390.423 107.737 391.484 102.616 392.197C90.9783 393.685 79.1586 392.733 67.9091 389.402C67.5734 389.422 67.2365 389.412 66.9025 389.372C67.1097 389.372 67.3111 389.325 67.4946 389.289L66.7722 389.076L65.7833 388.768C64.1252 388.247 62.481 387.677 60.8506 387.057L59.8617 386.678C58.2826 386.07 56.737 385.416 55.225 384.718L54.2361 384.268C52.657 383.533 51.1115 382.757 49.5995 381.94C49.0547 381.656 48.5158 381.348 47.9829 381.058C46.3722 380.158 44.7931 379.214 43.2456 378.227C42.985 375.995 42.8488 374.502 42.8488 374.502L40.5394 363.002L40.4209 362.409L38.7629 354.119L38.6445 353.526L35.0382 335.488L34.9198 334.896L33.2617 326.605L33.1433 326.013L29.4896 307.986L29.3712 307.394L27.7131 299.103L27.5947 298.511L23.9707 280.449L23.8522 279.857L22.1942 271.595L22.0757 271.003L21.4184 267.746L20.4295 262.813C20.4295 262.813 17.2733 258.3 13.7203 252.965L13.3236 252.372C12.311 250.874 11.2688 249.317 10.2562 247.789C9.91863 247.285 9.59295 246.788 9.26726 246.296C8.77379 245.55 8.29611 244.822 7.83422 244.111L7.51445 243.62L7.44932 243.519C2.34487 235.619 5.76165 232.184 5.76165 232.184C5.76165 232.184 7.90528 229.283 10.6707 225.445C10.8069 225.25 10.949 225.054 11.097 224.853C12.2814 223.195 13.5841 221.383 14.8632 219.57L15.8521 218.161C16.2252 217.634 16.5923 217.107 16.9476 216.586C17.0897 216.39 17.2259 216.189 17.3562 215.994C20.0861 212.049 22.3363 208.609 22.7982 207.389C23.5206 205.464 28.1276 199.773 32.7169 194.781C36.335 190.837 39.9354 187.331 41.552 186.49C45.2175 184.554 46.7275 178.294 46.7275 178.294C46.7275 178.294 54.7039 175.499 55.7817 173.343C56.8594 171.188 71.9536 161.499 71.9536 161.499C71.9536 161.499 78.0588 157.567 80.5281 155.198C80.8777 154.888 81.1826 154.532 81.4342 154.138C82.2928 152.598 87.9006 151.331 90.1804 150.875C90.7726 150.757 91.1397 150.692 91.1397 150.692C92.0601 149.019 93.2235 147.492 94.592 146.161C95.5217 145.338 96.6824 142.501 97.6594 139.754C98.7194 136.757 99.5425 133.873 99.5425 133.873C101.272 128.052 104.718 129.775 104.718 129.775C104.713 130.57 104.789 131.364 104.943 132.144C106.382 139.25 114.199 142.211 118.302 145.533C122.832 149.193 129.944 158.686 135.552 160.623C140.194 162.228 145.577 168.28 147.283 170.299L147.413 170.453C147.697 170.785 147.839 170.974 147.839 170.974C147.839 170.974 151.019 170.809 152.956 170.773H153.66C154.054 170.734 154.428 170.581 154.738 170.335C156.663 169.026 159.529 165.189 160.778 164.306C162.282 163.222 163.798 145.758 163.798 145.758L163.875 145.723C169.246 143.206 175.008 168.398 175.008 168.398C175.008 168.398 185.14 171.419 186.004 173.574C186.17 174.001 186.934 174.759 188.083 175.676C193.313 179.674 198.881 183.211 204.722 186.247C204.853 186.312 204.977 186.378 205.107 186.431C205.225 186.494 205.345 186.551 205.469 186.603C205.688 186.709 205.901 186.804 206.102 186.893C206.422 187.035 206.718 187.153 206.99 187.248L207.346 187.372C208.195 187.655 208.994 188.068 209.714 188.598C209.928 188.752 210.141 188.912 210.348 189.084C211.154 189.755 211.896 190.501 212.563 191.311C212.663 191.429 212.758 191.553 212.853 191.672C213.303 192.234 213.706 192.791 214.037 193.306C214.581 194.101 215.078 194.928 215.524 195.782C215.524 195.782 224.359 210.877 227.165 212.594C229.972 214.312 231.696 231.788 231.696 231.788L222.221 266.911C222.221 266.911 221.777 275.794 220.948 284.855C220.486 289.936 219.9 295.106 219.201 298.825Z" fill="#CED7E7"/>
<path d="M147.839 172.04C147.839 172.04 141.485 175.487 136.523 175.813C135.873 175.843 135.222 175.805 134.581 175.7C129.381 174.913 121.754 170.637 121.754 170.637L130.702 160.824L141.586 166.219L145.589 169.944L147.839 172.04Z" fill="#63667E"/>
<path opacity="0.1" d="M198.73 84.211C198.505 84.5294 198.249 84.8249 197.966 85.0934C194.851 88.0544 189.32 86.8285 185.074 86.1416C181.385 85.5383 177.781 84.4966 174.339 83.0384C171.342 81.7593 167.748 80.1959 165.053 82.0317C164.017 82.7305 163.307 83.8497 162.229 84.4656C161.151 85.0815 159.777 85.123 158.504 85.1407C154.359 85.1407 150.214 85.1881 146.169 84.2524C140.135 82.843 133.894 79.2957 128.156 81.6349C123.667 83.4589 121.233 88.3445 120.019 93.0407C119.427 95.3444 118.989 97.7783 117.651 99.7326C116.313 101.687 113.725 103.073 111.522 102.155C108.271 100.799 107.791 95.2792 103.871 95.0009C99.5662 94.6989 99.6194 99.1463 100.875 102.362C102.734 107.1 105.168 111.837 105.275 116.776C100.648 108.489 98.4616 99.0607 98.9688 89.5826C99.476 80.1045 102.656 70.9637 108.141 63.2174C109.095 62.6263 109.842 61.753 110.278 60.7184C110.322 60.5784 110.358 60.4361 110.385 60.292C110.711 58.6397 109.793 56.9046 109.74 55.1753C109.532 50.953 114.104 48.0097 118.296 47.4767C121.085 47.1214 123.94 47.3938 126.735 47.305C128.142 47.274 129.543 47.0873 130.909 46.7483C133.267 46.0417 135.475 44.9075 137.423 43.4024C144.143 41.8104 151.118 41.6182 157.915 42.8377C164.712 44.0573 171.185 46.6626 176.932 50.4914C182.68 54.3202 187.577 59.2908 191.321 65.0938C195.065 70.8968 197.575 77.4082 198.694 84.2228L198.73 84.211Z" fill="black"/>
<path d="M199.742 80.723C199.447 81.8943 198.832 82.9605 197.966 83.8024C194.851 86.7634 189.32 85.5316 185.075 84.8447C181.385 84.2546 177.78 83.2206 174.339 81.7652C171.342 80.492 167.748 78.9286 165.054 80.7644C164.017 81.4632 163.307 82.5825 162.229 83.1984C161.151 83.8142 159.777 83.8557 158.504 83.8675C154.359 83.8972 150.214 83.9208 146.169 82.9852C140.135 81.5698 133.894 78.0284 128.156 80.3617C123.667 82.1857 121.234 87.0773 120.02 91.7734C119.427 94.0771 118.989 96.511 117.651 98.4594C116.313 100.408 113.725 101.805 111.522 100.887C108.271 99.5313 107.791 94.012 103.871 93.7336C99.5663 93.4316 99.6196 97.879 100.875 101.095C103.078 106.703 106.074 112.281 105.091 118.227C104.114 118.227 102.497 118.192 101.538 118.168C102.284 116.895 100.863 115.379 99.4478 114.946C98.0326 114.514 96.3804 114.52 95.3027 113.489C94.225 112.459 94.219 110.866 94.3315 109.439C94.5772 106.388 95.3234 103.399 96.5403 100.591C97.316 98.8147 98.3168 96.8901 97.7246 95.0305C97.3692 94.1877 96.9412 93.3773 96.4456 92.6084C95.2139 90.2396 95.504 87.2786 96.5581 84.8328C97.0081 83.7906 97.3338 82.8075 97.7069 81.8718C98.178 80.5418 98.8598 79.2961 99.7261 78.1824C101.082 76.4946 102.409 73.9541 100.91 72.3848C100.531 71.988 101.289 71.7156 101.047 71.2004C101.004 71.1124 100.974 71.0186 100.958 70.922C100.888 70.2982 101.039 69.6697 101.384 69.1454C101.454 69.0092 101.531 68.8767 101.615 68.7486C101.683 68.6133 101.76 68.4827 101.846 68.3578C103.157 66.1683 104.9 64.2684 106.968 62.7733C108.253 61.8436 109.757 60.9494 110.267 59.4452C110.859 57.6686 109.817 55.7794 109.728 53.9022C109.521 49.6798 114.092 46.7365 118.285 46.2035C122.477 45.6706 126.824 46.5529 130.909 45.4692C136.707 43.9413 140.781 38.8247 146.045 35.9525C148.925 34.4126 152.119 33.5512 155.382 33.4342C158.646 33.3172 161.893 33.9476 164.876 35.2774C171.023 38.0845 175.659 43.7577 182.078 45.8897C184.352 46.6477 186.816 46.9497 188.864 48.2052C191.233 49.662 192.672 52.2085 193.904 54.7194C195.781 58.5272 196.16 62.3529 197.457 66.3858C198.487 69.5836 199.914 73.7646 200.033 77.4481C200.099 78.5481 200.001 79.6518 199.742 80.723Z" fill="#896363"/>
<g opacity="0.1">
<path d="M101.68 73.3027C101.775 72.9237 101.784 72.5284 101.708 72.1453C101.631 71.7622 101.47 71.4011 101.236 71.0879C101.39 71.5498 100.721 71.8163 101.088 72.2012C101.381 72.5087 101.585 72.8891 101.68 73.3027Z" fill="black"/>
<path d="M101.219 69.7317C101.149 69.9384 101.107 70.1535 101.094 70.3713C101.207 70.1818 101.361 69.9863 101.219 69.7317Z" fill="black"/>
<path d="M198.132 82.3575C195.011 85.3185 189.486 84.0926 185.229 83.3998C181.542 82.8061 177.94 81.7661 174.505 80.3026C171.502 79.0234 167.914 77.46 165.214 79.2958C164.183 79.9946 163.473 81.1139 162.389 81.7298C161.305 82.3457 159.937 82.3871 158.664 82.399C154.519 82.399 150.374 82.4523 146.324 81.5107C140.295 80.1012 134.054 76.5658 128.316 78.8931C123.827 80.723 121.393 85.6087 120.18 90.3048C119.587 92.6085 119.155 95.0425 117.811 96.9967C116.467 98.951 113.879 100.337 111.682 99.4247C108.431 98.0627 107.951 92.5493 104.031 92.271C100.97 92.0518 100.117 94.243 100.324 96.6769C100.502 94.8174 101.509 93.3843 104.031 93.5619C107.951 93.8403 108.431 99.3596 111.682 100.716C113.879 101.634 116.473 100.254 117.811 98.2877C119.149 96.3216 119.587 93.8995 120.18 91.6018C121.393 86.9056 123.827 82.014 128.316 80.19C134.054 77.8568 140.295 81.3744 146.324 82.8076C150.35 83.7492 154.531 83.7196 158.664 83.69C159.937 83.69 161.282 83.6544 162.389 83.0267C163.496 82.399 164.165 81.2915 165.214 80.5868C167.914 78.7569 171.502 80.3203 174.505 81.5936C177.941 83.0563 181.542 84.0982 185.229 84.6967C189.486 85.3836 195.011 86.6213 198.132 83.6485C199.825 82.0318 200.335 79.6926 200.222 77.1343C200.127 79.1655 199.535 81.0073 198.132 82.3575Z" fill="black"/>
<path d="M109.935 52.8303C109.902 53.1252 109.89 53.4221 109.899 53.7186C109.959 54.9504 110.426 56.1822 110.575 57.3844C110.794 55.9098 110.113 54.37 109.935 52.8303Z" fill="black"/>
<path d="M97.9022 94.847C97.951 95.0241 97.9886 95.2041 98.0147 95.3859C98.1107 94.7751 98.0723 94.1506 97.9022 93.556C97.5492 92.7102 97.1211 91.8976 96.6232 91.128C96.1783 90.252 95.9144 89.2953 95.8474 88.3151C95.727 89.7301 95.9952 91.1512 96.6232 92.4249C97.1223 93.1917 97.5504 94.0025 97.9022 94.847Z" fill="black"/>
<path d="M105.251 116.747L101.787 116.693C101.868 116.903 101.9 117.127 101.881 117.351C101.863 117.575 101.794 117.791 101.68 117.984C102.657 117.984 104.28 118.02 105.233 118.044C105.399 117.03 105.456 116.002 105.405 114.976C105.391 115.569 105.34 116.16 105.251 116.747Z" fill="black"/>
<path d="M99.584 113.472C98.1688 113.045 96.5226 113.039 95.4685 112.003C94.848 111.324 94.4982 110.441 94.4855 109.522C94.3967 110.884 94.4855 112.352 95.4685 113.3C96.5226 114.336 98.1688 114.342 99.584 114.769C100.045 114.903 100.473 115.129 100.842 115.435C101.212 115.74 101.515 116.118 101.734 116.545C102.332 115.319 100.958 113.88 99.584 113.472Z" fill="black"/>
</g>
<path opacity="0.1" d="M207.316 379.714C206.653 379.329 205.978 378.967 205.291 378.624C203.876 377.911 202.425 377.27 200.944 376.705C194.105 374.1 186.78 373.152 179.354 373.312C176.393 374.443 174.469 375.254 174.469 375.254L170.703 376.391L170.075 376.581C170.034 376.166 169.986 375.752 169.945 375.331C169.903 374.911 169.856 374.508 169.809 374.094C168.482 361.533 167.44 348.629 167.44 348.629V337.484V336.187L167.369 303.349L166.777 292.524L166.498 287.733L166.445 286.821L166.338 284.95L166.279 283.836C166.149 283.483 166.038 283.124 165.948 282.758C165.906 282.61 165.865 282.445 165.829 282.273C165.681 281.681 165.521 280.917 165.355 280.088C164.272 274.639 162.916 265.454 162.833 263.589C162.726 261.102 160.571 246.225 160.571 246.225C160.352 238.035 153.465 222.614 151.73 219.707C149.995 216.799 148.058 199.329 148.71 198.387C149.047 197.884 149.266 194.905 149.403 192.157C149.403 191.844 149.432 191.536 149.444 191.234C149.533 189.084 149.574 187.29 149.574 187.29L156.349 185.951L158.167 185.596L158.309 185.566L158.368 185.685C158.563 186.046 159.173 187.201 159.89 188.717C159.973 188.877 160.05 189.048 160.133 189.22C160.168 189.303 160.21 189.386 160.251 189.469C161.577 192.371 163.111 196.19 163.046 198.387C162.939 202.272 167.363 211.653 167.363 211.653C167.789 213.808 177.169 235.258 177.169 235.258C177.169 235.258 184.826 256.281 184.394 259.734C183.961 263.186 188.059 286.039 188.059 286.039L192.263 309.544C194.306 314.175 197.001 324.846 197.001 324.846L198.025 330.898L198.221 332.053L200.95 348.203L202.289 356.114C202.289 356.114 202.851 360.319 203.704 364.997C203.775 365.418 203.858 365.844 203.941 366.271C204.466 369.35 205.212 372.388 206.173 375.361C206.65 376.785 207.032 378.239 207.316 379.714Z" fill="black"/>
<path d="M208.051 380.134C207.808 379.992 207.565 379.85 207.316 379.714C206.653 379.329 205.978 378.967 205.291 378.624C203.876 377.911 202.425 377.27 200.945 376.705C194.105 374.1 186.78 373.152 179.354 373.312C176.394 374.443 174.469 375.254 174.469 375.254L170.703 376.391C170.655 375.977 170.614 375.562 170.567 375.142C170.519 374.721 170.484 374.384 170.448 374.005C169.122 361.474 168.08 348.629 168.08 348.629V337.377V336.08L168.008 303.326L167.416 292.986L167.298 290.842L167.215 289.391L167.108 287.472L167.002 285.524L166.925 284.12V283.812C166.925 283.783 166.925 283.747 166.883 283.712C166.771 283.392 166.635 282.906 166.487 282.291L166.416 281.994C166.386 281.858 166.35 281.71 166.321 281.562C165.208 276.511 163.573 265.62 163.484 263.577C163.378 261.09 161.222 246.214 161.222 246.214C161.003 238.023 154.116 222.603 152.381 219.695C150.646 216.787 148.716 199.317 149.361 198.376C149.734 197.783 149.953 194.189 150.096 191.222C150.096 190.985 150.096 190.754 150.096 190.535C150.173 188.705 150.202 187.278 150.202 187.278L156.503 186.034L158.102 185.72L158.35 185.673L158.942 185.554C158.942 185.554 159.718 186.988 160.648 188.96L160.766 189.208C162.122 192.134 163.727 196.113 163.68 198.376C163.573 202.26 167.997 211.641 167.997 211.641C168.423 213.797 177.803 235.246 177.803 235.246C177.803 235.246 185.46 256.269 185.027 259.722C184.595 263.174 188.693 286.027 188.693 286.027L192.897 309.532C194.94 314.163 197.634 324.834 197.634 324.834L198.588 330.472L198.783 331.615L200.933 344.359L202.916 356.103C202.916 356.103 203.509 360.289 204.326 364.986C204.403 365.412 204.48 365.838 204.563 366.271C205.087 369.364 205.833 372.416 206.795 375.402C207.32 376.949 207.74 378.53 208.051 380.134Z" fill="#63667E"/>
<path d="M202.709 75.9854C202.709 75.9854 200.447 78.899 198.404 78.899C196.361 78.899 188.408 78.5733 184.263 77.2823C180.118 75.9913 159.795 75.0142 159.795 75.0142C159.795 75.0142 131.016 75.1208 130.045 74.1496C129.074 73.1783 112.15 68.0025 110.426 68.3282C110.065 68.3993 109.183 68.5533 108.005 68.7487L106.654 68.9678C104.611 69.2935 102.059 69.6725 99.7261 69.9508C96.8422 70.2884 94.3078 70.4601 93.5024 70.164V67.6827C93.5024 67.6827 96.8422 62.8267 97.0554 61.435C97.2686 60.0433 100.075 39.867 107.406 32.6481C110.435 26.8582 115.336 22.2656 121.31 19.6196C131.229 15.3025 141.148 11.6427 141.148 11.6427L142.883 11.394L148.479 10.5649C148.649 10.3955 148.833 10.241 149.03 10.103C150.581 8.91857 155.283 6.34249 161.412 11.8796L162.495 13.6088C162.495 13.6088 181.356 18.0266 190.084 33.4416C198.813 48.8566 199.251 63.9518 199.896 70.851C199.896 70.851 199.464 72.7934 200.329 73.5455C200.642 73.822 200.94 74.1146 201.223 74.422C201.3 74.499 201.377 74.5759 201.448 74.6588C201.697 74.9076 201.927 75.1681 202.117 75.3813C202.14 75.398 202.16 75.4179 202.176 75.4406C202.222 75.4967 202.272 75.55 202.324 75.6004L202.709 75.9854Z" fill="#FED253"/>
<path opacity="0.05" d="M202.709 75.9854C202.709 75.9854 200.447 78.899 198.404 78.899C196.361 78.899 188.408 78.5733 184.263 77.2823C180.118 75.9913 159.795 75.0142 159.795 75.0142C159.795 75.0142 131.016 75.1208 130.045 74.1496C129.074 73.1784 112.15 68.0025 110.426 68.3282C110.065 68.3993 109.183 68.5533 108.005 68.7487L107.697 66.8536L107.62 66.3858C107.62 66.3858 140.283 59.3801 162.057 63.0517C183.831 66.7234 199.896 70.8095 199.896 70.8095C199.896 70.8095 199.464 72.752 200.329 73.5041C200.642 73.7806 200.94 74.0731 201.223 74.3805C201.3 74.4575 201.377 74.5345 201.448 74.6174C201.697 74.8661 201.927 75.1267 202.117 75.3399C202.14 75.3565 202.16 75.3765 202.176 75.3991C202.223 75.4551 202.272 75.5085 202.324 75.559L202.709 75.9854Z" fill="black"/>
<path opacity="0.1" d="M199.743 80.7229C195.71 81.0368 188.278 80.0537 185.027 79.5741C184.104 79.4379 183.198 79.272 182.286 79.0707C178.798 78.3127 168.074 76.1867 161.56 77.1697C153.69 78.3541 131.484 76.1985 131.484 76.1985C131.484 76.1985 117.793 73.3974 112.292 71.1352C110.273 70.3002 106.897 70.0396 103.54 70.4542C102.684 70.561 101.834 70.7132 100.994 70.9102C96.4103 71.9939 92.5434 74.4634 93.2126 78.6739C92.9564 78.3668 92.7191 78.0445 92.502 77.7086C92.2118 73.8593 93.408 71.5675 95.0661 70.2173L95.4569 70.0574C97.4823 69.4818 99.5436 69.0406 101.627 68.7368C101.953 68.6835 102.29 68.6361 102.634 68.5946C108.526 67.8011 117.047 67.6234 124.236 71.2418C124.236 71.2418 130.916 74.3745 135.446 74.3745C139.976 74.3745 176.838 74.7002 185.466 77.1756C187.183 77.6719 188.935 78.042 190.706 78.2831C193.852 78.6886 197.048 78.3872 200.062 77.4007C200.124 78.5179 200.016 79.638 199.743 80.7229Z" fill="black"/>
<path opacity="0.1" d="M202.709 75.9853C202.709 75.9853 200.447 78.8989 198.404 78.8989C196.361 78.8989 188.408 78.5732 184.263 77.2822C180.118 75.9912 159.795 75.0141 159.795 75.0141C159.795 75.0141 131.016 75.1207 130.045 74.1495C129.074 73.1783 112.15 68.0024 110.426 68.3281C110.065 68.3992 109.183 68.5532 108.005 68.7486L106.654 68.9677C104.309 68.9557 101.975 69.2869 99.7261 69.9508C96.8422 70.2883 94.3078 70.4601 93.5024 70.164V69.6724C94.1233 69.3121 94.7707 68.9993 95.4388 68.7368C99.4348 67.6177 103.55 66.9776 107.697 66.8299C112.866 66.6404 118.912 67.2444 124.224 69.9212C124.224 69.9212 130.903 73.0539 135.434 73.0539C139.964 73.0539 176.826 73.3737 185.454 75.855C187.172 76.3466 188.923 76.7147 190.694 76.9565C194.58 77.4462 198.526 76.8796 202.117 75.3161C202.14 75.3328 202.16 75.3527 202.176 75.3754C202.223 75.4313 202.272 75.4847 202.324 75.5352L202.709 75.9853Z" fill="black"/>
<path d="M93.2954 78.5732C93.2954 78.5732 86.071 73.0717 95.4509 69.4059C95.4509 69.4059 111.836 64.3426 124.236 70.5904C124.236 70.5904 130.915 73.7112 135.446 73.7112C139.976 73.7112 176.838 74.037 185.466 76.5183C187.184 77.0105 188.935 77.3786 190.706 77.6198C195.296 78.1764 199.946 77.2927 204.012 75.0911C204.604 74.7654 205.137 74.5996 205.297 74.7891C205.836 75.4405 205.41 79.2128 200.666 79.9649C196.965 80.5571 188.557 79.4378 185.021 78.9226C184.104 78.7864 183.192 78.6147 182.286 78.4193C178.798 77.6612 168.074 75.5352 161.53 76.5183C153.666 77.7027 131.454 75.5471 131.454 75.5471C131.454 75.5471 117.769 72.746 112.268 70.4778C106.767 68.2097 91.2465 70.164 93.2954 78.5732Z" fill="#FED253"/>
<path opacity="0.1" d="M154.199 20.7685C153.607 19.9157 145.998 13.8219 142.895 11.3584L148.491 10.5293C148.661 10.36 148.845 10.2054 149.042 10.0674C153.11 14.3372 154.199 20.7685 154.199 20.7685Z" fill="black"/>
<path opacity="0.1" d="M129.518 53.452L127.037 57.1178L136.523 56.798L136.736 52.7L129.518 53.452Z" fill="black"/>
<path opacity="0.1" d="M187.402 57.8759L188.48 61.2159L194.52 62.1871L191.932 58.1956L187.402 57.8759Z" fill="black"/>
<path opacity="0.1" d="M83.7021 170.003C84.3476 171.081 105.583 199.021 111.19 198.245C116.798 197.47 83.7021 170.003 83.7021 170.003Z" fill="black"/>
<path opacity="0.1" d="M154.851 195.539C154.851 195.539 160.026 200.502 159.268 202.438C158.51 204.375 154.851 195.539 154.851 195.539Z" fill="black"/>
<path opacity="0.1" d="M98.364 229.608C98.364 229.608 93.8339 250.845 96.2085 251.52C98.5831 252.195 98.364 229.608 98.364 229.608Z" fill="black"/>
<path opacity="0.1" d="M156.574 312.078C157.326 314.234 163.579 328.251 164.982 329.003C166.386 329.755 156.574 312.078 156.574 312.078Z" fill="black"/>
<path opacity="0.1" d="M229.232 254.51C229.013 255.262 223.624 259.686 224.809 261.303C225.993 262.92 229.232 254.51 229.232 254.51Z" fill="black"/>
<path opacity="0.1" d="M187.402 293.856C187.295 294.401 186.218 305.7 188.266 307.874C190.315 310.047 187.402 293.856 187.402 293.856Z" fill="black"/>
<path opacity="0.1" d="M242.639 352.555C241.075 353.426 239.459 354.267 237.812 355.072C236.036 355.937 234.26 356.76 232.448 357.536C231.725 357.849 231.003 358.157 230.286 358.454C229.197 358.904 228.119 359.336 227.053 359.75C223.814 361.018 220.693 362.119 217.916 363.049C216.838 363.41 215.808 363.742 214.848 364.05C210.016 365.584 206.807 366.419 206.807 366.419C206.074 366.262 205.323 366.2 204.574 366.235C204.367 366.235 204.154 366.235 203.935 366.235C202.932 366.308 201.934 366.434 200.944 366.614C194.33 367.798 184.986 371.121 179.354 373.294C176.393 374.425 174.469 375.237 174.469 375.237L170.703 376.374L170.075 376.563C165.995 377.807 160.257 379.571 158.19 380.306C154.85 381.49 125.852 387.525 125.852 387.525C123.203 388.248 120.497 388.743 117.763 389.005C111.027 389.623 104.257 389.778 97.4995 389.467C90.7133 389.905 79.7346 388.413 73.3452 387.406L72.3266 387.246C69.8573 386.844 68.2881 386.553 68.2881 386.553L69.1171 385.411L86.1181 361.953L86.2188 361.811L102.059 339.965L102.651 339.171L104.09 337.188C104.09 337.188 104.955 336.003 108.283 335.926C108.674 335.926 109.1 335.926 109.568 335.926C112.363 336.151 115.121 336.714 117.781 337.602L118.551 337.833C130.021 341.12 147.75 340.297 147.75 340.297C147.75 340.297 158.782 338.52 167.452 337.454L168.097 337.371C170.93 336.971 173.783 336.724 176.642 336.631C181.924 336.738 193.353 333.936 193.353 333.936C195.81 333.409 196.847 332.965 198.232 331.976C198.416 331.846 198.611 331.704 198.824 331.55C199.417 331.106 200.098 330.561 200.974 329.886C202.573 328.66 204.817 326.996 208.346 324.663C208.654 324.461 208.98 324.26 209.329 324.07C209.679 323.881 210.123 323.626 210.549 323.413C213.967 321.794 217.571 320.601 221.279 319.86C224.356 319.198 227.477 318.769 230.618 318.575H231.086C239.968 318.101 249.04 319.623 254.346 324.615C255.273 325.492 256.082 326.488 256.75 327.576C257.074 328.093 257.363 328.631 257.614 329.187C258.098 330.247 258.458 331.36 258.686 332.503C258.73 332.716 258.765 332.93 258.793 333.143C258.793 333.208 258.793 333.267 258.793 333.332C258.793 333.504 258.828 333.676 258.84 333.848C259.314 340.936 251.959 347.344 242.639 352.555Z" fill="black"/>
<path d="M68.2881 385.28C68.2881 385.28 87.4742 388.834 97.4995 388.188C97.4995 388.188 115.934 389.159 125.852 386.252C125.852 386.252 154.868 380.211 158.19 379.027C161.512 377.842 174.469 373.957 174.469 373.957C174.469 373.957 199.695 363.393 206.807 365.116C206.807 365.116 262.648 350.672 258.657 331.159C254.665 311.646 219.42 316.07 208.323 323.395C197.226 330.721 198.848 331.485 193.341 332.669C193.341 332.669 181.912 335.47 176.63 335.364C171.348 335.257 147.739 339.029 147.739 339.029C147.739 339.029 129.198 339.894 117.775 336.335C106.352 332.776 104.084 335.903 104.084 335.903L68.2881 385.28Z" fill="#FFA2A2"/>
<path opacity="0.1" d="M109.894 334.635C109.897 334.659 109.897 334.683 109.894 334.706C109.852 335.146 109.738 335.577 109.556 335.98C107.282 341.558 94.3732 356.606 94.3732 356.606C93.7847 358.393 93.0744 360.139 92.2474 361.829C90.4686 365.443 88.4198 368.917 86.1185 372.222C82.7072 377.167 78.9828 381.889 74.9681 386.358H74.9385C74.4276 386.737 73.8958 387.087 73.3455 387.406C71.954 388.235 69.8636 389.26 67.8917 389.384C67.5559 389.404 67.2191 389.394 66.885 389.355C67.0923 389.355 67.2936 389.307 67.4772 389.272L66.7548 389.059L65.7658 388.751C64.1078 388.229 62.4636 387.659 60.8331 387.039L59.8442 386.66C58.2651 386.052 56.7196 385.399 55.2076 384.7L54.2187 384.25C52.6396 383.516 51.094 382.74 49.582 381.923C49.0372 381.638 48.4984 381.33 47.9654 381.04C46.3547 380.14 44.7756 379.196 43.2281 378.209C41.5859 377.163 39.9791 376.072 38.4079 374.935C37.2236 372.737 36.2465 370.789 35.7136 369.741C34.7424 367.793 34.6595 365.003 34.778 362.984C34.778 362.777 34.778 362.581 34.8135 362.392C34.9142 361.124 35.0681 360.254 35.0681 360.254C34.1907 359.081 33.3991 357.846 32.6995 356.559C32.2975 355.92 32.069 355.187 32.0362 354.433C32.063 354.13 32.0349 353.825 31.9533 353.532C31.4974 351.661 29.5373 348.445 27.7253 346.426C26.3752 344.94 26.2923 339.385 26.4225 335.447C26.4995 333.078 26.6476 331.337 26.6476 331.337C26.3822 331.165 26.1836 330.908 26.085 330.608C25.6089 329.312 25.2869 327.965 25.1257 326.593C25.1257 326.398 25.0724 326.202 25.0428 326.001C24.6638 323.283 24.4921 320.553 24.4921 320.553C20.1101 317.361 18.0257 312.38 17.0545 307.939L16.9302 307.347C16.3968 304.617 16.1704 301.836 16.2551 299.056C16.2551 298.789 16.2551 298.588 16.2551 298.464C16.2551 298.339 16.2551 298.316 16.2551 298.316C16.2551 298.316 16.8354 285.483 18.4579 280.473C18.5231 280.259 18.5941 280.064 18.6652 279.88C18.7847 279.566 18.9397 279.266 19.1271 278.986C19.7193 278.198 20.1397 276.712 20.4891 274.953C20.7319 273.733 20.9332 272.377 21.0812 271.027C21.2174 269.902 21.324 268.782 21.4069 267.746C21.6379 264.975 21.7089 262.813 21.7089 262.813L20.6134 257.412C20.3114 255.938 20.0805 254.451 19.9206 252.965C19.9206 252.769 19.8732 252.574 19.8495 252.373C19.5726 249.628 19.5231 246.864 19.7015 244.111C19.7015 243.91 19.7015 243.715 19.737 243.519C20.1994 237.248 21.8386 231.121 24.5691 225.457L24.8652 224.865C25.2599 224.075 25.6744 223.299 26.1087 222.537C26.4225 221.975 26.7541 221.418 27.0976 220.867C28.0081 219.393 28.9964 217.967 30.0584 216.598C30.2124 216.396 30.3723 216.201 30.5322 216.005C32.3799 213.715 34.4334 211.597 36.667 209.681C42.6478 204.54 48.1372 202.308 53.1232 202.136C74.9266 201.366 87.1548 239.93 89.1326 246.687C89.3221 247.339 89.4168 247.694 89.4168 247.694C89.4168 247.694 98.2519 256.536 95.6642 260.415C95.1624 261.269 94.857 262.223 94.77 263.21C94.0594 268.427 96.0964 277.02 96.0964 277.02C96.0964 277.02 96.8189 279.389 98.927 285.062L99.5487 286.72C100.869 290.273 101.177 296.237 100.419 301.579C99.6909 306.695 97.9795 311.22 95.2378 312.38C89.63 314.749 91.14 317.118 92.4309 319.066C93.198 320.463 93.8382 321.926 94.3436 323.437C95.1549 325.622 95.9069 327.92 96.1912 328.814C96.2741 329.063 96.3155 329.199 96.3155 329.199C97.101 328.895 97.917 328.676 98.7493 328.547C99.8093 328.399 100.857 328.506 101.059 329.412C101.165 329.898 101.775 330.472 102.634 331.047C105.18 332.799 109.894 334.635 109.894 334.635Z" fill="black"/>
<path d="M108.603 334.635C108.567 335.086 108.452 335.527 108.265 335.938C106.003 341.523 93.0823 356.606 93.0823 356.606C92.4912 358.393 91.781 360.138 90.9564 361.829C89.5274 364.747 87.9114 367.57 86.1185 370.28C82.4064 375.88 78.2939 381.204 73.8133 386.21L73.6771 386.358C73.6771 386.358 73.156 386.755 72.327 387.264C70.8457 388.21 69.2134 388.895 67.5009 389.29L66.7784 389.076L65.7895 388.768C64.1314 388.247 62.4872 387.677 60.8568 387.057L59.8679 386.678C58.2888 386.07 56.7432 385.417 55.2312 384.718L54.2423 384.268C52.6632 383.533 51.1177 382.758 49.6057 381.94C49.0609 381.656 48.522 381.348 47.9891 381.058C46.3784 380.158 44.7993 379.214 43.2518 378.227C41.6095 377.181 40.0028 376.089 38.4316 374.952C37.7052 374.431 36.9867 373.896 36.2761 373.347C35.4767 371.831 34.8372 370.552 34.4404 369.759C33.4693 367.81 33.3864 365.021 33.5048 363.002C33.5048 362.794 33.5048 362.599 33.5403 362.41C33.641 361.142 33.7949 360.272 33.7949 360.272C33.7949 360.272 33.3153 359.626 32.735 358.75C32.4093 358.264 32.0599 357.702 31.7461 357.145C31.1539 356.103 30.692 355.048 30.7808 354.45C30.7928 354.348 30.7928 354.245 30.7808 354.142C30.7719 353.942 30.7422 353.744 30.692 353.55C30.2361 351.679 28.2701 348.463 26.458 346.444C25.1079 344.957 25.025 339.403 25.1494 335.464C25.1494 335.263 25.1494 335.068 25.1494 334.872C25.2323 332.829 25.3566 331.354 25.3566 331.354C24.6875 331.064 24.1723 328.915 23.8407 326.617L23.7519 326.025C23.3729 323.306 23.2012 320.576 23.2012 320.576C18.8191 317.384 16.7347 312.404 15.7695 307.963C15.0971 304.852 14.8382 301.666 14.9997 298.487C14.9997 298.393 14.9997 298.339 14.9997 298.339C14.9997 298.339 15.509 285.441 17.1315 280.425C17.1966 280.212 17.2677 280.017 17.3387 279.833C17.4808 279.526 17.6577 279.235 17.8658 278.968C18.7659 277.713 19.3639 274.693 19.7548 271.601L19.8258 271.009C20.3173 266.864 20.4535 262.795 20.4535 262.795L19.3521 257.394C19.0521 255.914 18.8211 254.431 18.6593 252.947C18.6297 252.752 18.6119 252.55 18.5882 252.355C18.3113 249.61 18.2618 246.847 18.4402 244.094C18.4402 243.892 18.4402 243.697 18.4816 243.501C18.9412 237.23 20.5806 231.102 23.3137 225.439C23.4084 225.238 23.5032 225.042 23.6097 224.847C24.3711 223.309 25.2172 221.814 26.1442 220.37C26.464 219.867 26.7897 219.369 27.1331 218.878C27.672 218.096 28.2345 217.326 28.8208 216.58L29.2945 215.988C31.1265 213.706 33.162 211.595 35.376 209.681C41.8898 204.096 47.8114 201.941 53.1409 202.136C74.1331 202.888 85.9171 240.067 87.8535 246.687C88.043 247.339 88.1377 247.694 88.1377 247.694C88.1377 247.694 96.9787 256.536 94.391 260.415C93.8892 261.269 93.5838 262.223 93.4968 263.21C92.7803 268.427 94.8233 277.02 94.8233 277.02C94.8233 277.02 95.5457 279.389 97.6538 285.062C97.8433 285.589 98.0506 286.14 98.246 286.72C99.5665 290.273 99.8744 296.237 99.1164 301.579C98.3881 306.701 96.6827 311.22 93.935 312.38C88.3332 314.749 89.8372 317.118 91.1341 319.066C91.9012 320.463 92.5413 321.926 93.0468 323.437C94.0712 326.226 95.0128 329.199 95.0128 329.199C95.4003 329.049 95.7957 328.921 96.1971 328.814C97.0209 328.543 97.8933 328.452 98.7552 328.547C98.9938 328.566 99.2203 328.66 99.4022 328.815C99.5842 328.97 99.7122 329.179 99.7678 329.412C99.9277 330.123 101.153 331.005 102.64 331.84C104.57 332.89 106.561 333.824 108.603 334.635Z" fill="#CED7E7"/>
<path opacity="0.1" d="M30.6621 277.689C32.711 277.583 54.7039 269.067 59.234 271.974C63.764 274.882 91.8029 293.75 91.8029 293.75C91.8029 293.75 74.2335 270.79 58.926 265.401C43.6186 260.012 30.6621 277.689 30.6621 277.689Z" fill="black"/>
<path opacity="0.1" d="M62.2778 312.404C62.2778 312.404 84.2708 316.822 87.6106 319.842L62.2778 312.404Z" fill="black"/>
<path opacity="0.1" d="M58.0437 345.295C57.7239 345.621 49.7534 363.511 50.393 363.511C51.0325 363.511 57.8305 352.851 57.8305 352.851L58.0437 345.295Z" fill="black"/>
<path opacity="0.1" d="M73.0316 323.828C73.0316 323.828 66.5652 326.096 67.3172 326.309C68.0693 326.522 72.8125 324.799 73.0316 323.828Z" fill="black"/>
<path opacity="0.1" d="M66.5649 350.891C67.6427 353.153 71.0891 359.946 71.847 358.868C72.605 357.79 66.5649 350.891 66.5649 350.891Z" fill="black"/>
<path opacity="0.1" d="M147.289 171.584L146.365 172.899C146.365 172.899 139.028 167.729 136.014 165.141C133 162.553 125.882 174.409 120.274 177.643C114.666 180.876 105.186 181.741 105.186 181.741C105.186 181.741 97.8548 174.409 98.0798 172.265C98.3048 170.122 94.6334 169.464 94.4143 167.954C94.1952 166.444 92.9043 162.133 91.1811 159.977C90.2691 158.84 90.1389 155.281 90.2218 152.184C90.8139 152.065 91.1811 152 91.1811 152C92.1015 150.328 93.2649 148.801 94.6334 147.47C96.5757 145.747 99.5898 135.182 99.5898 135.182C101.313 129.36 104.759 131.084 104.759 131.084C104.759 139.925 113.819 143.159 118.344 146.824C122.868 150.49 129.986 159.977 135.593 161.92C140.194 163.489 145.577 169.559 147.289 171.584Z" fill="black"/>
<path d="M147.289 170.288L146.365 171.608C146.365 171.608 138.999 166.45 135.984 163.844C132.97 161.239 125.853 173.112 120.245 176.346C114.637 179.579 105.156 180.45 105.156 180.45C105.156 180.45 97.8255 173.112 98.0505 170.975C98.2755 168.837 94.6041 168.173 94.385 166.657C94.1659 165.141 92.875 160.836 91.1518 158.68C90.2398 157.543 90.1096 153.984 90.1925 150.887L91.1518 150.709C92.0722 149.037 93.2356 147.51 94.6041 146.179C96.5464 144.45 99.5605 133.891 99.5605 133.891C101.284 128.07 104.73 129.787 104.73 129.787C104.73 138.628 113.79 141.868 118.314 145.534C122.838 149.199 129.956 158.68 135.564 160.623C140.195 162.216 145.577 168.262 147.289 170.288Z" fill="#CED7E7"/>
<path opacity="0.1" d="M147.84 172.04C147.84 172.04 141.486 175.487 136.523 175.813C135.874 175.843 135.223 175.805 134.581 175.7C134.581 175.7 140.059 171.608 145.145 170.773L147.84 172.04Z" fill="black"/>
<path opacity="0.1" d="M160.778 189.611C160.778 189.611 152.766 186.49 150.119 191.186C150.208 189.031 150.243 187.242 150.243 187.242L158.978 185.513C158.978 185.513 159.819 187.071 160.802 189.167C160.778 189.445 160.778 189.611 160.778 189.611Z" fill="black"/>
<path d="M134.581 175.7C134.581 175.7 144.18 169.938 148.793 170.424C153.631 170.927 163.005 171.282 163.005 171.282C163.005 171.282 159.772 178.614 160.204 180.124C160.636 181.634 160.743 188.966 160.743 188.966C160.743 188.966 151.043 185.193 149.427 192.199C149.427 192.199 144.144 184.329 140.586 181.954C138.224 180.248 136.19 178.129 134.581 175.7Z" fill="#63667E"/>
<path opacity="0.1" d="M188.805 182.392C186.005 182.392 176.086 176.133 173.93 172.04C171.775 167.948 168.755 172.467 165.954 173.983C164.177 174.954 157.137 172.923 153.341 171.448C155.265 170.139 159.529 166.456 160.778 165.574C162.282 164.49 163.798 147.026 163.798 147.026C169.187 144.225 175.008 169.666 175.008 169.666C175.008 169.666 185.146 172.686 186.005 174.842C186.17 175.268 186.934 176.026 188.083 176.944C189.267 179.929 189.919 182.392 188.805 182.392Z" fill="black"/>
<path d="M188.805 181.095C186.004 181.095 176.086 174.842 173.93 170.749C171.775 166.657 168.755 171.176 165.954 172.686C164.177 173.657 158.534 171.78 154.738 170.317C156.663 169.014 159.529 165.177 160.778 164.288C162.282 163.211 163.798 145.747 163.798 145.747C169.187 142.946 175.008 168.387 175.008 168.387C175.008 168.387 185.146 171.407 186.004 173.562C186.17 173.989 186.934 174.747 188.083 175.665C189.267 178.632 189.919 181.095 188.805 181.095Z" fill="#CED7E7"/>
<path d="M227.112 369.99L320.858 291.819C321.793 291.029 322.985 290.608 324.209 290.635L359.182 291.553C359.182 291.553 361.604 293.329 358.051 297.214L269.618 369.788C268.662 370.57 267.476 371.015 266.243 371.056L228.001 372.323C227.726 372.332 227.456 372.254 227.227 372.102C226.998 371.95 226.823 371.73 226.725 371.473C226.627 371.216 226.612 370.935 226.682 370.669C226.751 370.403 226.902 370.166 227.112 369.99Z" fill="#57B6FF"/>
<path d="M272.46 360.372C272.46 360.372 292.937 389.698 315.688 362.421C338.439 335.144 331.86 320.813 324.961 320.055C318.062 319.297 279.246 349.162 272.46 360.372Z" fill="#FFA2A2"/>
<path opacity="0.1" d="M410.57 32.3756C410.57 32.3756 436.963 -18.8498 468.158 7.56833C468.158 7.56833 474.968 10.0496 474.453 17.2508C474.453 17.2508 471.83 15.8118 469.745 21.3133C468.98 23.2654 467.986 25.1201 466.784 26.8386C465.188 29.1601 462.881 30.9013 460.211 31.8012C460.211 31.8012 446.213 42.2891 420.282 34.1996C420.282 34.1996 412.951 35.2537 411.766 34.3417L420.288 28.1118C420.288 28.1118 424.616 34.5372 430.947 35.2715C430.947 35.2715 420.288 28.5796 421.508 27.1287C421.756 26.8326 426.174 24.0315 426.174 24.0315C426.174 24.0315 433.748 35.1708 443.566 35.994C443.566 35.994 429.81 29.7226 427.838 22.9656L434.748 19.1103C434.748 19.1103 442.174 31.2801 453.324 32.6421C453.324 32.6421 439.172 25.589 436.318 18.3701L443.631 15.5157C443.631 15.5157 451.11 27.2413 460.389 28.3131C460.389 28.3131 444.862 18.5122 445.348 14.9708C445.348 14.9708 452.223 12.756 454.331 13.0462C454.331 13.0462 459.892 21.337 465.339 21.4851C465.339 21.4851 455.658 13.8338 456.297 12.6553C456.297 12.6553 466.02 12.152 471.101 14.503C471.101 14.503 463.877 10.482 456.297 11.1334C456.297 11.1334 459.726 7.10049 464.197 6.21218C464.197 6.21218 458.838 4.0092 453.94 11.2814C453.94 11.2814 446.378 11.9743 445.443 12.8152C445.443 12.8152 449.268 4.9508 453.976 1.60486C453.976 1.60486 446.959 2.84256 443.483 13.5022L436.069 16.2085C436.069 16.2085 440.575 5.54892 444.549 2.25628C444.549 2.25628 437.585 4.62509 434.257 17.0613L427.435 20.7685C427.435 20.7685 430.615 11.2933 434.245 6.66818C434.245 6.66818 428.258 10.2569 425.516 21.8996L421.253 24.9021C421.253 24.9021 423.699 18.0207 424.581 16.1079C425.463 14.1951 425.019 13.7983 425.019 13.7983C422.055 17.3024 420.122 21.5605 419.435 26.0983C419.435 26.0983 411.062 32.8494 410.57 32.3756Z" fill="#57B6FF"/>
<path opacity="0.1" d="M519.724 59.7709C519.724 59.7709 531.65 36.6217 545.743 48.5605C545.743 48.5605 548.823 49.6798 548.586 52.9309C548.586 52.9309 547.401 52.2854 546.46 54.7727C546.119 55.6537 545.673 56.4907 545.133 57.2659C544.413 58.3123 543.375 59.0992 542.173 59.5103C542.173 59.5103 535.842 64.2479 524.123 60.594C524.123 60.594 520.813 61.0678 520.28 60.6592L524.129 57.8403C524.129 57.8403 526.083 60.748 528.95 61.0737C528.95 61.0737 524.141 58.0535 524.686 57.3961C524.793 57.2659 526.788 55.9986 526.788 55.9986C526.788 55.9986 530.211 61.0323 534.652 61.4053C534.652 61.4053 528.434 58.5687 527.546 55.4833L530.673 53.7482C530.673 53.7482 534.024 59.2497 539.064 59.8656C539.064 59.8656 532.668 56.6796 531.366 53.4166L534.67 52.1255C534.67 52.1255 538.045 57.4258 542.238 57.9114C542.238 57.9114 535.221 53.4817 535.446 51.8827C535.446 51.8827 538.549 50.8819 539.502 51.0122C539.502 51.0122 542.013 54.7608 544.476 54.8201C544.476 54.8201 540.1 51.3675 540.39 50.8346C540.39 50.8346 544.784 50.6095 547.07 51.6696C547.07 51.6696 543.807 49.8515 540.39 50.1476C541.333 49.0755 542.567 48.3017 543.943 47.9209C543.943 47.9209 541.521 46.926 539.306 50.2127C539.306 50.2127 535.89 50.5266 535.469 50.9056C535.469 50.9056 537.198 47.3524 539.324 45.8423C539.324 45.8423 536.15 46.399 534.587 51.2195L531.271 52.4631C531.271 52.4631 533.302 47.6485 535.102 46.1562C535.102 46.1562 531.952 47.228 530.448 52.8421L527.368 54.5121C527.368 54.5121 528.801 50.2246 530.442 48.14C530.442 48.14 527.736 49.7627 526.504 55.0214L524.573 56.3776C524.573 56.3776 525.681 53.2685 526.078 52.4039C526.474 51.5393 526.273 51.3616 526.273 51.3616C524.934 52.9505 524.06 54.8794 523.75 56.9342C523.75 56.9342 519.931 59.9841 519.724 59.7709Z" fill="#57B6FF"/>
<path opacity="0.1" d="M390.496 86.7042C390.496 86.7042 402.422 63.5551 416.551 75.4938C416.551 75.4938 419.625 76.6131 419.394 79.8702C419.394 79.8702 418.209 79.2188 417.268 81.706C416.924 82.586 416.479 83.4228 415.941 84.1992C415.213 85.2507 414.164 86.0381 412.951 86.4436C412.951 86.4436 406.627 91.1813 394.908 87.5274C394.908 87.5274 391.597 88.0071 391.065 87.5925L394.914 84.7736C394.914 84.7736 396.868 87.6814 399.728 88.013C399.728 88.013 394.92 84.9868 395.464 84.3295C395.577 84.1992 397.572 82.9319 397.572 82.9319C397.572 82.9319 400.995 87.9656 405.43 88.3387C405.43 88.3387 399.219 85.5021 398.324 82.4167L401.451 80.6874C401.451 80.6874 404.809 86.1831 409.848 86.799C409.848 86.799 403.453 83.6129 402.15 80.3499L405.454 79.0589C405.454 79.0589 408.835 84.3591 413.028 84.8447C413.028 84.8447 406.011 80.415 406.23 78.8161C406.23 78.8161 409.339 77.8153 410.292 77.9456C410.292 77.9456 412.803 81.6942 415.266 81.7593C415.266 81.7593 410.89 78.3009 411.18 77.7679C411.18 77.7679 415.568 77.5429 417.86 78.6029C417.86 78.6029 414.591 76.7848 411.174 77.0809C412.117 76.0089 413.352 75.235 414.727 74.8543C414.727 74.8543 412.311 73.8594 410.097 77.1461C410.097 77.1461 406.68 77.4599 406.259 77.839C406.259 77.839 407.983 74.2858 410.114 72.7756C410.114 72.7756 406.94 73.3323 405.377 78.1528L402.02 79.3965C402.02 79.3965 404.057 74.5819 405.851 73.0954C405.851 73.0954 402.706 74.1614 401.202 79.7755L398.117 81.4455C398.117 81.4455 399.556 77.1579 401.196 75.0734C401.196 75.0734 398.49 76.696 397.253 81.9548L395.322 83.3109C395.322 83.3109 396.43 80.2018 396.826 79.3372C397.223 78.4726 397.028 78.295 397.028 78.295C395.686 79.8822 394.812 81.8118 394.505 83.8676C394.505 83.8676 390.703 86.9174 390.496 86.7042Z" fill="#57B6FF"/>
</g>
<defs>
<clipPath id="clip0_186_751">
<rect width="635" height="462" fill="white"/>
</clipPath>
</defs>
</svg>
