<svg width="100%" height="100%" viewBox="0 0 485 272" fill="none" xmlns="http://www.w3.org/2000/svg">
<g clip-path="url(#clip0_38_2752)">
<path d="M336.366 86.3055H327.147C326.851 86.3065 326.566 86.1967 326.347 85.9977C326.128 85.7987 325.991 85.5249 325.963 85.23L324.118 66.29H339.395L337.55 85.2297C337.522 85.5247 337.385 85.7985 337.166 85.9976C336.947 86.1966 336.661 86.3065 336.366 86.3055Z" fill="#E6E6E6"/>
<path d="M339.37 68.6728H324.142C323.826 68.6724 323.524 68.5468 323.301 68.3234C323.078 68.1001 322.953 67.7973 322.952 67.4814V64.6221C322.953 64.3062 323.078 64.0034 323.301 63.78C323.524 63.5567 323.826 63.431 324.142 63.4307H339.37C339.686 63.431 339.988 63.5567 340.211 63.78C340.434 64.0034 340.56 64.3062 340.56 64.6221V67.4814C340.56 67.7973 340.434 68.1001 340.211 68.3234C339.988 68.5468 339.686 68.6724 339.37 68.6728Z" fill="#CCCCCC"/>
<path d="M228.511 65.9591H191.991V54.8571C203.531 46.8148 213.756 47.5138 227.206 55.5101L228.511 65.9591Z" fill="#57B6FF"/>
<path d="M183.534 263.156L175.539 263.155L174.344 232.273L183.536 232.274L183.534 263.156Z" fill="#FFB8B8"/>
<path d="M185.573 270.916L159.793 270.915V270.589C159.793 269.269 160.053 267.963 160.557 266.744C161.061 265.525 161.801 264.417 162.732 263.484C163.664 262.551 164.77 261.811 165.988 261.306C167.205 260.801 168.51 260.541 169.828 260.541L185.573 260.541L185.573 270.916Z" fill="#2F2E41"/>
<path d="M228.567 263.156L236.562 263.155L237.757 232.273L228.565 232.274L228.567 263.156Z" fill="#FFB8B8"/>
<path d="M226.527 260.541L242.273 260.541C243.59 260.541 244.896 260.801 246.113 261.306C247.33 261.811 248.437 262.551 249.368 263.484C250.3 264.417 251.039 265.524 251.544 266.744C252.048 267.963 252.307 269.269 252.307 270.589V270.915L226.528 270.916L226.527 260.541Z" fill="#2F2E41"/>
<path d="M228.777 259.197C228.11 259.195 227.463 258.967 226.942 258.549C226.422 258.131 226.058 257.549 225.911 256.897L206.095 170.341C206.051 170.121 205.932 169.923 205.757 169.783C205.582 169.643 205.364 169.569 205.14 169.574H205.135C204.91 169.57 204.691 169.646 204.517 169.788C204.343 169.93 204.224 170.129 204.183 170.35L185.985 256.323C185.843 256.981 185.481 257.57 184.959 257.994C184.437 258.417 183.786 258.65 183.114 258.652H174.445C174.045 258.652 173.65 258.57 173.282 258.411C172.915 258.253 172.584 258.02 172.31 257.729C172.036 257.438 171.824 257.093 171.687 256.717C171.551 256.34 171.492 255.94 171.516 255.54L177.973 146.573L180.571 145.803L180.62 145.804L231.655 146.251L242.524 255.098C242.562 255.486 242.523 255.878 242.408 256.251C242.293 256.623 242.105 256.969 241.855 257.269C241.605 257.568 241.298 257.814 240.952 257.993C240.606 258.173 240.228 258.281 239.84 258.312L229.012 259.188C228.933 259.194 228.855 259.197 228.777 259.197Z" fill="#2F2E41"/>
<path d="M207.701 46.0616C216.547 46.0616 223.719 38.8804 223.719 30.0218C223.719 21.1632 216.547 13.9819 207.701 13.9819C198.855 13.9819 191.684 21.1632 191.684 30.0218C191.684 38.8804 198.855 46.0616 207.701 46.0616Z" fill="#FFB8B8"/>
<path d="M197.889 158.52C195.079 158.555 192.28 158.161 189.589 157.351C187.195 156.628 184.975 155.422 183.064 153.807C181.153 152.193 179.592 150.204 178.478 147.963C178.125 147.288 178.046 146.503 178.259 145.772C180.026 139.734 188.562 108.351 183.116 83.4028C182.347 79.937 182.283 76.3517 182.928 72.8606C183.573 69.3696 184.913 66.0444 186.869 63.0833C188.779 60.1454 191.261 57.6229 194.166 55.6663C197.071 53.7097 200.339 52.359 203.777 51.6949L203.777 51.6942C204.68 51.5176 205.589 51.3728 206.476 51.2631C210.276 50.7947 214.132 51.1732 217.769 52.3714C221.406 53.5696 224.733 55.558 227.513 58.1942C230.375 60.8822 232.609 64.1707 234.054 67.8241C235.499 71.4776 236.119 75.4058 235.871 79.3275L231.685 146.595C231.656 147.1 231.496 147.588 231.222 148.012C230.948 148.436 230.568 148.781 230.121 149.014C225.3 151.544 210.818 158.52 197.889 158.52Z" fill="#3F3D56"/>
<path d="M225.796 18.215C224.132 14.0276 221.084 10.5384 217.161 8.32966C213.239 6.12096 208.678 5.32643 204.241 6.0787L209.291 10.1654C203.016 10.377 196.411 9.92711 191.931 14.3315C193.358 14.2919 195.227 17.3469 196.653 17.3073C193.987 17.3601 191.569 19.2363 190.391 21.6326C189.3 24.0945 189.045 26.8466 189.664 29.4675C190.191 32.0857 194.209 38.2196 195.29 40.661C195.104 34.2805 207.648 19.0614 213.773 20.6497C210.661 21.806 207.96 23.8591 206.012 26.5503C210.179 24.4443 214.892 23.6721 219.512 24.3383C220.567 24.5806 221.655 24.6416 222.73 24.5187C223.389 24.3882 224.004 24.0906 224.515 23.6545C225.027 23.2183 225.418 22.6581 225.652 22.0273C225.885 21.3966 225.954 20.7164 225.85 20.0518C225.746 19.3871 225.474 18.7601 225.06 18.2307L225.796 18.215Z" fill="#2F2E41"/>
<path d="M196.786 154.481C196.381 154.48 195.981 154.395 195.611 154.232L165.221 140.949C164.575 140.672 164.051 140.171 163.745 139.537C163.439 138.904 163.372 138.182 163.555 137.503L183.674 61.3957C184.048 59.9796 184.7 58.6524 185.593 57.4918C186.485 56.3312 187.6 55.3606 188.872 54.6367C190.143 53.9129 191.546 53.4503 192.999 53.276C194.451 53.1018 195.924 53.2195 197.33 53.6221L205.375 55.9213L199.712 151.713C199.682 152.185 199.54 152.644 199.296 153.05C199.053 153.456 198.715 153.797 198.312 154.044C197.854 154.328 197.325 154.48 196.786 154.481Z" fill="#57B6FF"/>
<path d="M253.031 137.502L251.694 132.454L249.757 125.113L248.825 121.593L246.888 114.273L232.913 61.3943C232.54 59.9775 231.888 58.6496 230.996 57.4885C230.104 56.3273 228.989 55.3563 227.717 54.6324C226.445 53.9085 225.041 53.4463 223.589 53.273C222.136 53.0996 220.663 53.2186 219.257 53.6228L211.216 55.9216L215.2 123.298L215.611 130.331L215.872 134.766V134.772L216.289 141.767L216.877 151.713C216.924 152.459 217.253 153.16 217.796 153.674C218.34 154.188 219.057 154.476 219.804 154.482C220.209 154.479 220.608 154.395 220.979 154.233L251.368 140.95C252.014 140.673 252.538 140.171 252.844 139.538C253.15 138.904 253.216 138.181 253.031 137.502Z" fill="#57B6FF"/>
<path d="M248.825 121.594L215.612 130.331L215.2 123.298L246.888 114.273L248.825 121.594Z" fill="#CCCCCC"/>
<path d="M251.694 132.454L216.289 141.767L215.873 134.772V134.766L249.758 125.114L251.694 132.454Z" fill="#CCCCCC"/>
<path d="M200.977 124.813L200.566 131.716L167.992 121.998L169.902 114.776L200.977 124.813Z" fill="#CCCCCC"/>
<path d="M200.299 136.261L167.059 125.518L165.148 132.761L199.895 143.125L200.299 136.261Z" fill="#CCCCCC"/>
<path d="M167.639 143.48C168.63 143.221 169.552 142.748 170.341 142.093C171.129 141.439 171.765 140.619 172.203 139.692C172.641 138.765 172.87 137.753 172.876 136.727C172.881 135.701 172.661 134.687 172.232 133.756L187.859 84.6286L176.778 82.3047L162.451 130.47C160.937 131.295 159.776 132.648 159.191 134.272C158.605 135.896 158.635 137.679 159.275 139.283C159.914 140.886 161.119 142.199 162.66 142.973C164.202 143.747 165.973 143.927 167.639 143.48Z" fill="#FFB8B8"/>
<path d="M188.292 60.4772C191.474 60.8022 193.264 64.3848 192.473 68.8456L188.677 90.2519C188.392 91.8565 187.073 93.1271 185.977 92.8527L173.136 89.6383C172.148 89.391 171.784 87.9852 172.344 86.5785L180.053 67.213C181.727 63.0074 185.208 60.162 188.292 60.4772Z" fill="#3F3D56"/>
<path d="M207.642 3.68401e-10C213.063 0.00058226 218.271 2.11401 222.163 5.89277C226.055 9.67152 228.326 14.8189 228.494 20.2449H232.423C232.769 20.2449 233.101 20.3825 233.346 20.6275C233.59 20.8724 233.728 21.2046 233.728 21.551V26.7755C233.728 27.1219 233.59 27.4541 233.346 27.6991C233.101 27.944 232.769 28.0816 232.423 28.0816H188.078C187.732 28.0816 187.4 27.944 187.155 27.6991C186.911 27.4541 186.773 27.1219 186.773 26.7755V20.8979C186.773 18.1536 187.313 15.4361 188.362 12.9006C189.411 10.3651 190.948 8.06138 192.886 6.12082C194.823 4.18027 197.124 2.64093 199.656 1.59072C202.188 0.540508 204.901 -1.62944e-05 207.642 3.68401e-10Z" fill="#57B6FF"/>
<path d="M210.136 129.179H200.918C200.622 129.18 200.336 129.07 200.117 128.871C199.898 128.672 199.761 128.398 199.733 128.103L197.888 109.163H213.165L211.32 128.103C211.292 128.398 211.156 128.672 210.936 128.871C210.717 129.07 210.432 129.18 210.136 129.179Z" fill="#E6E6E6"/>
<path d="M213.141 111.546H197.912C197.597 111.546 197.295 111.42 197.072 111.197C196.848 110.973 196.723 110.67 196.723 110.355V107.495C196.723 107.179 196.848 106.877 197.072 106.653C197.295 106.43 197.597 106.304 197.912 106.304H213.141C213.456 106.304 213.759 106.43 213.982 106.653C214.205 106.877 214.33 107.179 214.33 107.495V110.355C214.33 110.67 214.205 110.973 213.982 111.197C213.759 111.42 213.456 111.546 213.141 111.546Z" fill="#CCCCCC"/>
<path d="M205.725 119.021C206.083 119.063 206.438 119.133 206.785 119.23L231.336 98.1464L229.901 90.4107L241.276 86.7159L245.145 100.163C245.458 101.25 245.41 102.408 245.009 103.465C244.608 104.522 243.876 105.42 242.922 106.025L211.829 125.728C211.852 127.12 211.45 128.485 210.678 129.643C209.906 130.801 208.8 131.696 207.508 132.209C206.216 132.722 204.798 132.829 203.444 132.516C202.089 132.203 200.862 131.484 199.926 130.455C198.989 129.426 198.388 128.136 198.201 126.757C198.015 125.377 198.252 123.973 198.881 122.732C199.511 121.491 200.503 120.471 201.725 119.808C202.948 119.145 204.343 118.871 205.725 119.021Z" fill="#FFB8B8"/>
<path d="M231.4 62.2454C234.798 61.2926 238.194 63.8832 239.332 68.2966L244.793 89.4754C245.202 91.063 244.407 92.7502 243.166 92.9291L228.618 95.0244C227.499 95.1857 226.513 94.0361 226.472 92.5223L225.907 71.681C225.784 67.1549 228.105 63.1691 231.4 62.2454Z" fill="#3F3D56"/>
<path d="M426.933 197.531C420.235 188.61 414.94 178.714 411.232 168.188C411.017 167.559 411.033 166.873 411.275 166.254C411.518 165.634 411.972 165.121 412.557 164.806L435.477 152.508C435.848 152.307 436.259 152.194 436.68 152.177C437.101 152.16 437.521 152.239 437.907 152.409C438.299 152.58 438.648 152.838 438.926 153.165C439.205 153.491 439.405 153.877 439.512 154.292C442.179 164.435 447.194 173.807 454.149 181.65C454.436 181.969 454.646 182.349 454.763 182.762C454.88 183.175 454.902 183.609 454.826 184.031C454.754 184.447 454.588 184.84 454.34 185.182C454.093 185.523 453.771 185.804 453.399 186.002L430.479 198.3C429.893 198.613 429.215 198.708 428.565 198.567C427.916 198.426 427.337 198.059 426.933 197.531Z" fill="#CCCCCC"/>
<path d="M428.497 196.355C428.62 196.509 428.793 196.615 428.986 196.655C429.179 196.695 429.38 196.666 429.555 196.573L452.474 184.275C452.586 184.217 452.682 184.134 452.756 184.032C452.83 183.93 452.879 183.813 452.9 183.689C452.924 183.558 452.917 183.424 452.88 183.296C452.844 183.168 452.778 183.051 452.688 182.952C445.528 174.879 440.365 165.231 437.619 154.789C437.587 154.66 437.526 154.54 437.44 154.439C437.355 154.338 437.247 154.257 437.125 154.205C437.01 154.153 436.885 154.129 436.759 154.134C436.634 154.14 436.511 154.174 436.401 154.235L413.481 166.533C413.308 166.627 413.172 166.779 413.099 166.962C413.025 167.145 413.017 167.348 413.077 167.537C416.719 177.874 421.919 187.593 428.497 196.355Z" fill="white"/>
<path d="M436.982 170.058L424.499 175.577C424.024 175.786 423.486 175.798 423.002 175.61C422.519 175.422 422.129 175.05 421.919 174.575L421.61 173.875C421.401 173.4 421.389 172.861 421.577 172.376C421.764 171.892 422.136 171.502 422.61 171.291L435.093 165.773C435.568 165.564 436.106 165.552 436.59 165.74C437.073 165.927 437.463 166.3 437.673 166.774L437.982 167.475C438.191 167.95 438.203 168.489 438.015 168.974C437.828 169.458 437.456 169.848 436.982 170.058Z" fill="#CCCCCC"/>
<path d="M441.547 178.548L429.064 184.066C428.589 184.276 428.051 184.288 427.567 184.1C427.084 183.912 426.694 183.54 426.484 183.065L426.175 182.365C425.966 181.889 425.954 181.35 426.142 180.866C426.329 180.382 426.701 179.991 427.175 179.781L439.658 174.263C440.133 174.054 440.671 174.042 441.155 174.229C441.638 174.417 442.028 174.789 442.238 175.264L442.547 175.965C442.756 176.44 442.768 176.979 442.58 177.463C442.393 177.948 442.021 178.338 441.547 178.548Z" fill="#CCCCCC"/>
<path d="M412.27 171.474C411.409 170.919 410.679 170.182 410.133 169.314C409.587 168.447 409.238 167.47 409.109 166.452C408.981 165.434 409.077 164.401 409.391 163.425C409.705 162.448 410.228 161.553 410.925 160.801L405.661 85.9878L420.825 87.4605L421.241 160.725C422.425 161.981 423.107 163.628 423.159 165.354C423.211 167.08 422.629 168.765 421.523 170.09C420.417 171.415 418.865 172.288 417.159 172.543C415.454 172.798 413.714 172.418 412.27 171.474Z" fill="#A0616A"/>
<path d="M409.093 111.126C408.738 110.87 408.445 110.538 408.235 110.154C408.025 109.769 407.904 109.343 407.881 108.905L406.77 88.7412C406.66 86.7435 407.293 84.7757 408.546 83.2174C409.799 81.659 411.584 80.6204 413.556 80.3018C415.528 79.9832 417.549 80.4072 419.228 81.492C420.906 82.5769 422.125 84.2457 422.647 86.1767L427.528 104.204C427.731 104.957 427.628 105.759 427.241 106.435C426.854 107.111 426.215 107.605 425.464 107.81L411.579 111.58C411.158 111.695 410.715 111.714 410.285 111.636C409.855 111.557 409.447 111.383 409.093 111.126Z" fill="#3F3D56"/>
<path d="M383.248 263.45H375.253L371.449 232.568H383.249L383.248 263.45Z" fill="#A0616A"/>
<path d="M369.542 261.162H384.961V270.884H359.833C359.833 269.607 360.085 268.343 360.572 267.164C361.06 265.984 361.776 264.912 362.677 264.01C363.579 263.107 364.649 262.391 365.827 261.902C367.005 261.414 368.267 261.162 369.542 261.162Z" fill="#2F2E41"/>
<path d="M413.246 263.45H405.251L401.448 232.568H413.248L413.246 263.45Z" fill="#A0616A"/>
<path d="M399.54 261.162H414.96V270.884H389.832C389.832 269.607 390.083 268.343 390.571 267.164C391.059 265.984 391.774 264.912 392.676 264.01C393.577 263.107 394.647 262.391 395.825 261.902C397.003 261.414 398.265 261.162 399.54 261.162Z" fill="#2F2E41"/>
<path d="M382.87 247.892L374.069 247.472C373.319 247.437 372.611 247.115 372.091 246.572C371.571 246.03 371.279 245.309 371.274 244.558C368.953 208.692 365.74 170.235 370.659 155.378C370.656 154.954 370.745 154.536 370.919 154.15C371.092 153.764 371.347 153.42 371.666 153.142C371.985 152.864 372.36 152.658 372.765 152.538C373.171 152.418 373.597 152.388 374.016 152.449L409.227 157.567C409.923 157.665 410.56 158.01 411.022 158.541C411.483 159.071 411.738 159.75 411.74 160.454C416.236 178.045 416.439 209.944 416.269 243.088C416.272 243.476 416.198 243.861 416.052 244.22C415.906 244.579 415.69 244.905 415.417 245.181C415.144 245.456 414.82 245.674 414.462 245.823C414.105 245.973 413.721 246.049 413.334 246.049H403.846C403.145 246.052 402.468 245.803 401.936 245.348C401.404 244.892 401.053 244.26 400.947 243.567L395.092 206.299C395.007 205.753 394.727 205.258 394.305 204.903C393.883 204.548 393.346 204.358 392.795 204.368C392.244 204.378 391.715 204.588 391.307 204.958C390.898 205.328 390.636 205.834 390.571 206.382L385.924 245.306C385.836 246.019 385.492 246.676 384.955 247.153C384.419 247.63 383.727 247.894 383.009 247.896C382.963 247.896 382.917 247.895 382.87 247.892Z" fill="#2F2E41"/>
<path d="M389.066 160.457C381.306 156.14 375.243 155.005 372.319 154.713C371.931 154.676 371.554 154.559 371.212 154.372C370.87 154.184 370.569 153.928 370.328 153.621C370.082 153.311 369.901 152.954 369.797 152.572C369.693 152.191 369.667 151.792 369.721 151.399L378.158 88.6724C378.644 85.0027 380.059 81.5185 382.269 78.5514C384.48 75.5842 387.412 73.2328 390.786 71.7209C394.052 70.2173 397.648 69.5757 401.232 69.857C404.815 70.1383 408.268 71.3332 411.26 73.328C411.549 73.5206 411.833 73.7173 412.111 73.918C415.557 76.4464 418.179 79.9398 419.645 83.9578C421.112 87.9758 421.358 92.3386 420.352 96.4964C415.178 117.692 413.401 152.439 413.097 159.19C413.073 159.765 412.88 160.32 412.541 160.786C412.203 161.251 411.734 161.606 411.194 161.805C408.011 162.964 404.652 163.562 401.265 163.575C396.999 163.601 392.798 162.528 389.066 160.457Z" fill="#3F3D56"/>
<path d="M396.124 63.2037C404.97 63.2037 412.141 56.0224 412.141 47.1639C412.141 38.3053 404.97 31.124 396.124 31.124C387.278 31.124 380.106 38.3053 380.106 47.1639C380.106 56.0224 387.278 63.2037 396.124 63.2037Z" fill="#A0616A"/>
<path d="M407.458 59.854C404.47 63.0414 398.921 61.3303 398.531 56.9758C398.501 56.6378 398.503 56.2975 398.538 55.9599C398.739 54.031 399.852 52.2799 399.585 50.2432C399.525 49.7364 399.336 49.2533 399.037 48.8399C396.656 45.6468 391.067 50.268 388.819 47.3775C387.441 45.6051 389.061 42.8145 388.004 40.8335C386.608 38.2189 382.474 39.5087 379.882 38.0768C376.998 36.4836 377.17 32.0521 379.069 29.3567C381.384 26.0694 385.444 24.3153 389.453 24.0626C393.462 23.8098 397.444 24.895 401.187 26.3557C405.439 28.0154 409.657 30.3091 412.274 34.0537C415.456 38.6076 415.762 44.7299 414.171 50.0549C413.203 53.2941 409.898 57.2511 407.458 59.854Z" fill="#2F2E41"/>
<path d="M420.143 75.4481C419.862 74.129 417.456 72.3265 414.013 70.8571C408.478 68.6123 402.492 67.7083 396.542 68.219C390.593 68.7297 384.848 70.6406 379.775 73.7959C379.421 73.815 379.083 73.9499 378.814 74.18C378.544 74.4101 378.357 74.7226 378.282 75.0694L366.7 126.367L365.193 133.048L364.195 137.469L362.689 144.131L361.887 147.69C361.836 147.917 361.833 148.153 361.88 148.382C361.928 148.61 362.023 148.826 362.16 149.014C362.297 149.203 362.473 149.36 362.675 149.475C362.878 149.59 363.103 149.661 363.335 149.682L413.347 154.005C413.393 154.005 413.445 154.011 413.491 154.011C413.903 154.009 414.3 153.85 414.6 153.566C414.9 153.283 415.082 152.896 415.108 152.483L415.584 145.228L416.093 137.469L416.315 134.106L416.817 126.367L420.149 75.533V75.4873L420.143 75.4481Z" fill="#57B6FF"/>
<path d="M338.08 78.6771C338.16 79.0295 338.213 79.3877 338.236 79.7482L366.251 95.9324L373.06 92.0069L380.319 101.523L365.752 111.921L333.792 86.6715C332.488 87.1545 331.069 87.2287 329.722 86.8842C328.376 86.5397 327.166 85.7928 326.253 84.7428C325.341 83.6929 324.769 82.3896 324.614 81.0064C324.46 79.6232 324.729 78.2256 325.387 76.9994C326.044 75.7733 327.059 74.7767 328.296 74.1422C329.534 73.5078 330.934 73.2655 332.312 73.4476C333.69 73.6297 334.98 74.2276 336.01 75.1618C337.041 76.0959 337.763 77.3221 338.08 78.6771Z" fill="#A0616A"/>
<path d="M367.252 94.5562C367.205 94.1207 367.256 93.6802 367.402 93.2673C367.548 92.8543 367.785 92.4795 368.095 92.1703L382.353 77.8889C383.766 76.474 385.651 75.6331 387.647 75.5281C389.642 75.4232 391.605 76.0617 393.158 77.3205C394.711 78.5793 395.743 80.3694 396.056 82.3454C396.37 84.3215 395.941 86.3436 394.853 88.0219L384.699 103.69C384.275 104.343 383.609 104.801 382.848 104.964C382.087 105.126 381.293 104.979 380.64 104.556L368.573 96.7134C368.205 96.4756 367.896 96.1585 367.667 95.7851C367.439 95.4118 367.297 94.9918 367.252 94.5562Z" fill="#3F3D56"/>
<path d="M416.816 126.367L416.314 134.106L365.193 133.048L366.699 126.367H416.816Z" fill="#CCCCCC"/>
<path d="M416.093 137.469L415.584 145.228L362.688 144.131L364.196 137.469H416.093Z" fill="#CCCCCC"/>
<path d="M396.437 16C391.016 16.0006 385.808 18.114 381.916 21.8928C378.024 25.6715 375.754 30.8189 375.585 36.2449H371.656C371.31 36.2449 370.978 36.3825 370.734 36.6275C370.489 36.8724 370.352 37.2046 370.352 37.551V42.7755C370.352 43.1219 370.489 43.4541 370.734 43.6991C370.978 43.944 371.31 44.0816 371.656 44.0816H416.001C416.347 44.0816 416.679 43.944 416.924 43.6991C417.168 43.4541 417.306 43.1219 417.306 42.7755V36.8979C417.306 34.1536 416.766 31.4361 415.717 28.9006C414.669 26.3651 413.131 24.0614 411.194 22.1208C409.256 20.1803 406.955 18.6409 404.423 17.5907C401.891 16.5405 399.178 16 396.437 16Z" fill="#57B6FF"/>
<path d="M70.5061 224.037C66.3787 225.49 61.9473 225.853 57.6387 225.093C53.3302 224.333 49.2897 222.475 45.9065 219.697C37.2904 212.455 34.589 200.524 32.391 189.477L25.8896 156.801L39.5009 166.186C49.2893 172.935 59.2982 179.901 66.0757 189.677C72.8532 199.454 75.8115 212.799 70.366 223.377" fill="#E6E6E6"/>
<path d="M69.3422 263.598C70.7199 253.549 72.1365 243.371 71.1701 233.215C70.3119 224.194 67.5638 215.384 61.9692 208.16C58.9995 204.333 55.386 201.054 51.2911 198.471C50.2233 197.796 49.2405 199.49 50.3036 200.162C57.389 204.647 62.8693 211.268 65.9543 219.073C69.3617 227.751 69.9089 237.212 69.3217 246.432C68.9666 252.007 68.2141 257.546 67.4557 263.077C67.3959 263.328 67.4332 263.591 67.56 263.815C67.6869 264.038 67.8937 264.206 68.1389 264.282C68.389 264.35 68.6556 264.316 68.8809 264.188C69.1062 264.06 69.2719 263.848 69.3422 263.598Z" fill="#F2F2F2"/>
<path d="M56.0732 245.816C54.3031 248.51 51.8699 250.703 49.0081 252.182C46.1463 253.661 42.9524 254.377 39.734 254.261C31.4628 253.868 24.5672 248.087 18.3599 242.599L0 226.365L12.1512 225.783C20.8897 225.364 29.8536 224.974 38.1766 227.672C46.4997 230.371 54.1757 236.865 55.6976 245.493" fill="#E6E6E6"/>
<path d="M73.2357 269.375C66.6049 257.625 58.9138 244.567 45.171 240.394C41.3498 239.237 37.3431 238.823 33.3665 239.173C32.1133 239.282 32.4262 241.216 33.6772 241.108C40.3428 240.554 46.9955 242.316 52.5153 246.099C57.8269 249.72 61.9626 254.753 65.463 260.091C67.6071 263.361 69.5277 266.769 71.4486 270.173C72.0625 271.26 73.8568 270.475 73.2357 269.375Z" fill="#F2F2F2"/>
<path d="M484.348 272H20.0232C19.8503 272 19.6844 271.931 19.5621 271.809C19.4398 271.686 19.3711 271.52 19.3711 271.347C19.3711 271.174 19.4398 271.008 19.5621 270.885C19.6844 270.763 19.8503 270.694 20.0232 270.694H484.348C484.521 270.694 484.687 270.763 484.809 270.885C484.931 271.008 485 271.174 485 271.347C485 271.52 484.931 271.686 484.809 271.809C484.687 271.931 484.521 272 484.348 272Z" fill="#CCCCCC"/>
</g>
<defs>
<clipPath id="clip0_38_2752">
<rect width="485" height="272" fill="white"/>
</clipPath>
</defs>
</svg>
